M48
;GenerationSoftware,Autodesk,EAGLE,8.7.0*%
;CreationDate,2018-05-24T18:28:40Z*%
FMAT,2
ICI,OFF
METRIC,TZ,000.000
T4C0.350
T3C0.800
T2C0.813
T1C1.000
%
G90
M71
T1
X53340Y45720
X50800Y45720
T2
X110490Y13970
X125730Y1270
X143510Y35560
X143510Y38100
X143510Y40640
X143510Y43180
X143510Y45720
X143510Y48260
X143510Y50800
X143510Y53340
X151130Y45720
X151130Y48260
X151130Y43180
X151130Y40640
X151130Y53340
X151130Y50800
X151130Y38100
X151130Y35560
X156210Y16510
X156210Y13970
X156210Y11430
X156210Y8890
X156210Y6350
X124460Y35560
X124460Y38100
X124460Y50800
X124460Y53340
X124460Y40640
X124460Y43180
X124460Y48260
X124460Y45720
X116840Y53340
X116840Y50800
X116840Y48260
X116840Y45720
X116840Y43180
X116840Y40640
X116840Y38100
X116840Y35560
X49530Y1270
X49530Y3810
X49530Y6350
X49530Y8890
X49530Y11430
X49530Y13970
X49530Y16510
X64770Y1270
X64770Y3810
X64770Y6350
X64770Y8890
X64770Y11430
X64770Y13970
X64770Y16510
X80010Y1270
X80010Y3810
X80010Y6350
X80010Y8890
X80010Y11430
X80010Y13970
X80010Y16510
X95250Y1270
X95250Y3810
X95250Y6350
X95250Y8890
X95250Y11430
X95250Y13970
X95250Y16510
X110490Y1270
X110490Y3810
X110490Y6350
X110490Y8890
X110490Y11430
X156210Y3810
X110490Y16510
X156210Y1270
X125730Y3810
X125730Y6350
X125730Y8890
X125730Y11430
X125730Y13970
X125730Y16510
X140970Y1270
X140970Y3810
X140970Y6350
X140970Y8890
X140970Y11430
X140970Y13970
X140970Y16510
T3
X96520Y38100
X68580Y53340
X71120Y53340
X73660Y53340
X76200Y53340
X78740Y53340
X81280Y53340
X83820Y53340
X86360Y53340
X88900Y53340
X91440Y53340
X93980Y53340
X96520Y53340
X66040Y39370
X66040Y41910
X66040Y44450
X66040Y46990
X66040Y49530
X66040Y52070
X90170Y49530
X87630Y49530
X80010Y49530
X77470Y49530
X68580Y38100
X71120Y38100
X73660Y38100
X76200Y38100
X78740Y38100
X81280Y38100
X83820Y38100
X86360Y38100
X88900Y38100
X91440Y38100
X93980Y38100
T4
X104394Y50292
X108204Y46482
X131826Y19050
X131826Y20574
X136398Y16002
X123444Y28194
X118110Y22860
X93726Y20574
X123444Y30480
X109728Y21336
X131826Y22860
X123444Y22860
X67056Y22098
X134874Y14478
X96012Y32766
X92964Y28956
X108204Y30480
X92964Y23622
X97536Y31242
X66294Y23622
X137922Y57912
X112014Y53340
X117348Y19812
X103632Y56388
X136398Y36576
M30