G04 EAGLE Gerber X2 export*
%TF.Part,Single*%
%TF.FileFunction,Legend,Top,1*%
%TF.FilePolarity,Positive*%
%TF.GenerationSoftware,Autodesk,EAGLE,8.7.0*%
%TF.CreationDate,2018-05-24T18:28:41Z*%
G75*
%MOMM*%
%FSLAX34Y34*%
%LPD*%
%AMOC8*
5,1,8,0,0,1.08239X$1,22.5*%
G01*
%ADD10C,0.152400*%
%ADD11C,0.127000*%
%ADD12C,0.254000*%
%ADD13C,0.101600*%


D10*
X1177290Y546100D02*
X1177290Y342900D01*
X1235710Y342900D02*
X1235710Y546100D01*
X1177290Y546100D01*
X1177290Y342900D02*
X1196340Y342900D01*
X1216660Y342900D02*
X1235710Y342900D01*
X1216660Y342900D02*
X1216657Y343147D01*
X1216648Y343395D01*
X1216633Y343642D01*
X1216612Y343888D01*
X1216585Y344134D01*
X1216552Y344379D01*
X1216513Y344624D01*
X1216468Y344867D01*
X1216417Y345109D01*
X1216360Y345350D01*
X1216298Y345589D01*
X1216229Y345827D01*
X1216155Y346063D01*
X1216075Y346297D01*
X1215990Y346529D01*
X1215898Y346759D01*
X1215802Y346987D01*
X1215699Y347212D01*
X1215592Y347435D01*
X1215478Y347655D01*
X1215360Y347872D01*
X1215236Y348087D01*
X1215107Y348298D01*
X1214973Y348506D01*
X1214834Y348711D01*
X1214690Y348912D01*
X1214542Y349110D01*
X1214388Y349304D01*
X1214230Y349494D01*
X1214067Y349680D01*
X1213900Y349862D01*
X1213728Y350040D01*
X1213552Y350214D01*
X1213372Y350384D01*
X1213187Y350549D01*
X1212999Y350709D01*
X1212807Y350865D01*
X1212611Y351017D01*
X1212412Y351163D01*
X1212209Y351305D01*
X1212002Y351441D01*
X1211793Y351573D01*
X1211580Y351699D01*
X1211364Y351820D01*
X1211146Y351936D01*
X1210924Y352046D01*
X1210700Y352151D01*
X1210474Y352251D01*
X1210245Y352345D01*
X1210014Y352433D01*
X1209780Y352516D01*
X1209545Y352593D01*
X1209308Y352664D01*
X1209070Y352730D01*
X1208830Y352789D01*
X1208588Y352843D01*
X1208345Y352891D01*
X1208102Y352933D01*
X1207857Y352969D01*
X1207611Y352999D01*
X1207365Y353023D01*
X1207118Y353041D01*
X1206871Y353053D01*
X1206624Y353059D01*
X1206376Y353059D01*
X1206129Y353053D01*
X1205882Y353041D01*
X1205635Y353023D01*
X1205389Y352999D01*
X1205143Y352969D01*
X1204898Y352933D01*
X1204655Y352891D01*
X1204412Y352843D01*
X1204170Y352789D01*
X1203930Y352730D01*
X1203692Y352664D01*
X1203455Y352593D01*
X1203220Y352516D01*
X1202986Y352433D01*
X1202755Y352345D01*
X1202526Y352251D01*
X1202300Y352151D01*
X1202076Y352046D01*
X1201854Y351936D01*
X1201636Y351820D01*
X1201420Y351699D01*
X1201207Y351573D01*
X1200998Y351441D01*
X1200791Y351305D01*
X1200588Y351163D01*
X1200389Y351017D01*
X1200193Y350865D01*
X1200001Y350709D01*
X1199813Y350549D01*
X1199628Y350384D01*
X1199448Y350214D01*
X1199272Y350040D01*
X1199100Y349862D01*
X1198933Y349680D01*
X1198770Y349494D01*
X1198612Y349304D01*
X1198458Y349110D01*
X1198310Y348912D01*
X1198166Y348711D01*
X1198027Y348506D01*
X1197893Y348298D01*
X1197764Y348087D01*
X1197640Y347872D01*
X1197522Y347655D01*
X1197408Y347435D01*
X1197301Y347212D01*
X1197198Y346987D01*
X1197102Y346759D01*
X1197010Y346529D01*
X1196925Y346297D01*
X1196845Y346063D01*
X1196771Y345827D01*
X1196702Y345589D01*
X1196640Y345350D01*
X1196583Y345109D01*
X1196532Y344867D01*
X1196487Y344624D01*
X1196448Y344379D01*
X1196415Y344134D01*
X1196388Y343888D01*
X1196367Y343642D01*
X1196352Y343395D01*
X1196343Y343147D01*
X1196340Y342900D01*
D11*
X1179405Y338455D02*
X1179405Y327025D01*
X1179405Y338455D02*
X1182580Y338455D01*
X1182691Y338453D01*
X1182801Y338447D01*
X1182912Y338438D01*
X1183022Y338424D01*
X1183131Y338407D01*
X1183240Y338386D01*
X1183348Y338361D01*
X1183455Y338332D01*
X1183561Y338300D01*
X1183666Y338264D01*
X1183769Y338224D01*
X1183871Y338181D01*
X1183972Y338134D01*
X1184071Y338083D01*
X1184168Y338030D01*
X1184262Y337973D01*
X1184355Y337912D01*
X1184446Y337849D01*
X1184535Y337782D01*
X1184621Y337712D01*
X1184704Y337639D01*
X1184786Y337564D01*
X1184864Y337486D01*
X1184939Y337404D01*
X1185012Y337321D01*
X1185082Y337235D01*
X1185149Y337146D01*
X1185212Y337055D01*
X1185273Y336962D01*
X1185330Y336867D01*
X1185383Y336771D01*
X1185434Y336672D01*
X1185481Y336571D01*
X1185524Y336469D01*
X1185564Y336366D01*
X1185600Y336261D01*
X1185632Y336155D01*
X1185661Y336048D01*
X1185686Y335940D01*
X1185707Y335831D01*
X1185724Y335722D01*
X1185738Y335612D01*
X1185747Y335501D01*
X1185753Y335391D01*
X1185755Y335280D01*
X1185753Y335169D01*
X1185747Y335059D01*
X1185738Y334948D01*
X1185724Y334838D01*
X1185707Y334729D01*
X1185686Y334620D01*
X1185661Y334512D01*
X1185632Y334405D01*
X1185600Y334299D01*
X1185564Y334194D01*
X1185524Y334091D01*
X1185481Y333989D01*
X1185434Y333888D01*
X1185383Y333789D01*
X1185330Y333692D01*
X1185273Y333598D01*
X1185212Y333505D01*
X1185149Y333414D01*
X1185082Y333325D01*
X1185012Y333239D01*
X1184939Y333156D01*
X1184864Y333074D01*
X1184786Y332996D01*
X1184704Y332921D01*
X1184621Y332848D01*
X1184535Y332778D01*
X1184446Y332711D01*
X1184355Y332648D01*
X1184262Y332587D01*
X1184168Y332530D01*
X1184071Y332477D01*
X1183972Y332426D01*
X1183871Y332379D01*
X1183769Y332336D01*
X1183666Y332296D01*
X1183561Y332260D01*
X1183455Y332228D01*
X1183348Y332199D01*
X1183240Y332174D01*
X1183131Y332153D01*
X1183022Y332136D01*
X1182912Y332122D01*
X1182801Y332113D01*
X1182691Y332107D01*
X1182580Y332105D01*
X1179405Y332105D01*
X1183215Y332105D02*
X1185755Y327025D01*
X1190117Y327025D02*
X1197737Y338455D01*
X1190117Y338455D02*
X1197737Y327025D01*
X1202690Y327025D02*
X1202690Y338455D01*
X1206500Y332105D01*
X1210310Y338455D01*
X1210310Y327025D01*
X1216279Y330200D02*
X1216279Y338455D01*
X1216279Y330200D02*
X1216281Y330089D01*
X1216287Y329979D01*
X1216296Y329868D01*
X1216310Y329758D01*
X1216327Y329649D01*
X1216348Y329540D01*
X1216373Y329432D01*
X1216402Y329325D01*
X1216434Y329219D01*
X1216470Y329114D01*
X1216510Y329011D01*
X1216553Y328909D01*
X1216600Y328808D01*
X1216651Y328709D01*
X1216704Y328613D01*
X1216761Y328518D01*
X1216822Y328425D01*
X1216885Y328334D01*
X1216952Y328245D01*
X1217022Y328159D01*
X1217095Y328076D01*
X1217170Y327994D01*
X1217248Y327916D01*
X1217330Y327841D01*
X1217413Y327768D01*
X1217499Y327698D01*
X1217588Y327631D01*
X1217679Y327568D01*
X1217772Y327507D01*
X1217867Y327450D01*
X1217963Y327397D01*
X1218062Y327346D01*
X1218163Y327299D01*
X1218265Y327256D01*
X1218368Y327216D01*
X1218473Y327180D01*
X1218579Y327148D01*
X1218686Y327119D01*
X1218794Y327094D01*
X1218903Y327073D01*
X1219012Y327056D01*
X1219122Y327042D01*
X1219233Y327033D01*
X1219343Y327027D01*
X1219454Y327025D01*
X1219565Y327027D01*
X1219675Y327033D01*
X1219786Y327042D01*
X1219896Y327056D01*
X1220005Y327073D01*
X1220114Y327094D01*
X1220222Y327119D01*
X1220329Y327148D01*
X1220435Y327180D01*
X1220540Y327216D01*
X1220643Y327256D01*
X1220745Y327299D01*
X1220846Y327346D01*
X1220945Y327397D01*
X1221042Y327450D01*
X1221136Y327507D01*
X1221229Y327568D01*
X1221320Y327631D01*
X1221409Y327698D01*
X1221495Y327768D01*
X1221578Y327841D01*
X1221660Y327916D01*
X1221738Y327994D01*
X1221813Y328076D01*
X1221886Y328159D01*
X1221956Y328245D01*
X1222023Y328334D01*
X1222086Y328425D01*
X1222147Y328518D01*
X1222204Y328612D01*
X1222257Y328709D01*
X1222308Y328808D01*
X1222355Y328909D01*
X1222398Y329011D01*
X1222438Y329114D01*
X1222474Y329219D01*
X1222506Y329325D01*
X1222535Y329432D01*
X1222560Y329540D01*
X1222581Y329649D01*
X1222598Y329758D01*
X1222612Y329868D01*
X1222621Y329979D01*
X1222627Y330089D01*
X1222629Y330200D01*
X1222629Y338455D01*
X1227455Y327025D02*
X1235075Y338455D01*
X1227455Y338455D02*
X1235075Y327025D01*
D10*
X508000Y0D02*
X482600Y0D01*
X508000Y0D02*
X508000Y22860D01*
X505460Y25400D01*
X508000Y27940D01*
X508000Y48260D01*
X505460Y50800D01*
X508000Y53340D01*
X508000Y73660D01*
X505460Y76200D01*
X508000Y78740D01*
X508000Y99060D01*
X505460Y101600D01*
X508000Y104140D01*
X508000Y177800D02*
X482600Y177800D01*
X482600Y104140D02*
X485140Y101600D01*
X482600Y99060D01*
X482600Y78740D01*
X485140Y76200D01*
X482600Y73660D01*
X482600Y53340D01*
X485140Y50800D01*
X482600Y48260D01*
X482600Y27940D01*
X485140Y25400D01*
X482600Y22860D01*
X482600Y0D01*
X508000Y104140D02*
X508000Y124460D01*
X505460Y127000D01*
X508000Y129540D01*
X508000Y149860D01*
X505460Y152400D01*
X508000Y154940D01*
X485140Y152400D02*
X482600Y154940D01*
X485140Y152400D02*
X482600Y149860D01*
X482600Y129540D01*
X485140Y127000D01*
X482600Y124460D01*
X482600Y104140D01*
X482600Y154940D02*
X482600Y177800D01*
X508000Y177800D02*
X508000Y154940D01*
D11*
X475615Y45085D02*
X475715Y45083D01*
X475814Y45077D01*
X475914Y45067D01*
X476012Y45054D01*
X476111Y45036D01*
X476208Y45015D01*
X476304Y44990D01*
X476400Y44961D01*
X476494Y44928D01*
X476587Y44892D01*
X476678Y44852D01*
X476768Y44808D01*
X476856Y44761D01*
X476942Y44711D01*
X477026Y44657D01*
X477108Y44600D01*
X477187Y44540D01*
X477265Y44476D01*
X477339Y44410D01*
X477411Y44341D01*
X477480Y44269D01*
X477546Y44195D01*
X477610Y44117D01*
X477670Y44038D01*
X477727Y43956D01*
X477781Y43872D01*
X477831Y43786D01*
X477878Y43698D01*
X477922Y43608D01*
X477962Y43517D01*
X477998Y43424D01*
X478031Y43330D01*
X478060Y43234D01*
X478085Y43138D01*
X478106Y43041D01*
X478124Y42942D01*
X478137Y42844D01*
X478147Y42744D01*
X478153Y42645D01*
X478155Y42545D01*
X478153Y42404D01*
X478148Y42263D01*
X478138Y42122D01*
X478125Y41981D01*
X478109Y41841D01*
X478088Y41701D01*
X478064Y41562D01*
X478036Y41423D01*
X478005Y41286D01*
X477970Y41149D01*
X477932Y41013D01*
X477890Y40878D01*
X477844Y40745D01*
X477795Y40612D01*
X477742Y40481D01*
X477686Y40352D01*
X477627Y40223D01*
X477564Y40097D01*
X477498Y39972D01*
X477429Y39849D01*
X477356Y39728D01*
X477280Y39609D01*
X477201Y39491D01*
X477120Y39376D01*
X477035Y39264D01*
X476947Y39153D01*
X476856Y39045D01*
X476763Y38939D01*
X476666Y38836D01*
X476567Y38735D01*
X469265Y39053D02*
X469165Y39055D01*
X469066Y39061D01*
X468966Y39071D01*
X468868Y39084D01*
X468769Y39102D01*
X468672Y39123D01*
X468576Y39148D01*
X468480Y39177D01*
X468386Y39210D01*
X468293Y39246D01*
X468202Y39286D01*
X468112Y39330D01*
X468024Y39377D01*
X467938Y39427D01*
X467854Y39481D01*
X467772Y39538D01*
X467693Y39598D01*
X467615Y39662D01*
X467541Y39728D01*
X467469Y39797D01*
X467400Y39869D01*
X467334Y39943D01*
X467270Y40021D01*
X467210Y40100D01*
X467153Y40182D01*
X467099Y40266D01*
X467049Y40352D01*
X467002Y40440D01*
X466958Y40530D01*
X466918Y40621D01*
X466882Y40714D01*
X466849Y40808D01*
X466820Y40904D01*
X466795Y41000D01*
X466774Y41097D01*
X466756Y41196D01*
X466743Y41294D01*
X466733Y41394D01*
X466727Y41493D01*
X466725Y41593D01*
X466727Y41726D01*
X466732Y41859D01*
X466742Y41992D01*
X466755Y42125D01*
X466772Y42257D01*
X466792Y42389D01*
X466816Y42520D01*
X466844Y42650D01*
X466875Y42780D01*
X466910Y42908D01*
X466949Y43036D01*
X466991Y43162D01*
X467037Y43287D01*
X467086Y43411D01*
X467138Y43534D01*
X467194Y43655D01*
X467254Y43774D01*
X467316Y43892D01*
X467382Y44007D01*
X467451Y44121D01*
X467524Y44233D01*
X467599Y44343D01*
X467678Y44451D01*
X471488Y40322D02*
X471436Y40238D01*
X471381Y40155D01*
X471322Y40075D01*
X471261Y39997D01*
X471197Y39922D01*
X471129Y39849D01*
X471059Y39778D01*
X470987Y39711D01*
X470912Y39646D01*
X470834Y39584D01*
X470754Y39525D01*
X470672Y39469D01*
X470588Y39417D01*
X470502Y39368D01*
X470414Y39322D01*
X470324Y39279D01*
X470233Y39240D01*
X470140Y39205D01*
X470046Y39173D01*
X469951Y39145D01*
X469855Y39120D01*
X469758Y39100D01*
X469660Y39082D01*
X469562Y39069D01*
X469463Y39060D01*
X469364Y39054D01*
X469265Y39052D01*
X473392Y43815D02*
X473444Y43899D01*
X473499Y43982D01*
X473558Y44062D01*
X473619Y44140D01*
X473683Y44215D01*
X473751Y44288D01*
X473821Y44359D01*
X473893Y44426D01*
X473968Y44491D01*
X474046Y44553D01*
X474126Y44612D01*
X474208Y44668D01*
X474292Y44720D01*
X474378Y44769D01*
X474466Y44815D01*
X474556Y44858D01*
X474647Y44897D01*
X474740Y44932D01*
X474834Y44964D01*
X474929Y44992D01*
X475025Y45017D01*
X475122Y45037D01*
X475220Y45055D01*
X475318Y45068D01*
X475417Y45077D01*
X475516Y45083D01*
X475615Y45085D01*
X473393Y43815D02*
X471488Y40323D01*
X466725Y49149D02*
X478155Y52959D01*
X466725Y56769D01*
X469265Y61214D02*
X466725Y64389D01*
X478155Y64389D01*
X478155Y61214D02*
X478155Y67564D01*
X467995Y11430D02*
X470535Y8255D01*
X467995Y11430D02*
X479425Y11430D01*
X479425Y8255D02*
X479425Y14605D01*
X469265Y160655D02*
X467995Y160655D01*
X467995Y167005D01*
X479425Y163830D01*
D10*
X635000Y0D02*
X660400Y0D01*
X660400Y22860D01*
X657860Y25400D01*
X660400Y27940D01*
X660400Y48260D01*
X657860Y50800D01*
X660400Y53340D01*
X660400Y73660D01*
X657860Y76200D01*
X660400Y78740D01*
X660400Y99060D01*
X657860Y101600D01*
X660400Y104140D01*
X660400Y177800D02*
X635000Y177800D01*
X635000Y104140D02*
X637540Y101600D01*
X635000Y99060D01*
X635000Y78740D01*
X637540Y76200D01*
X635000Y73660D01*
X635000Y53340D01*
X637540Y50800D01*
X635000Y48260D01*
X635000Y27940D01*
X637540Y25400D01*
X635000Y22860D01*
X635000Y0D01*
X660400Y104140D02*
X660400Y124460D01*
X657860Y127000D01*
X660400Y129540D01*
X660400Y149860D01*
X657860Y152400D01*
X660400Y154940D01*
X637540Y152400D02*
X635000Y154940D01*
X637540Y152400D02*
X635000Y149860D01*
X635000Y129540D01*
X637540Y127000D01*
X635000Y124460D01*
X635000Y104140D01*
X635000Y154940D02*
X635000Y177800D01*
X660400Y177800D02*
X660400Y154940D01*
D11*
X628015Y45085D02*
X628115Y45083D01*
X628214Y45077D01*
X628314Y45067D01*
X628412Y45054D01*
X628511Y45036D01*
X628608Y45015D01*
X628704Y44990D01*
X628800Y44961D01*
X628894Y44928D01*
X628987Y44892D01*
X629078Y44852D01*
X629168Y44808D01*
X629256Y44761D01*
X629342Y44711D01*
X629426Y44657D01*
X629508Y44600D01*
X629587Y44540D01*
X629665Y44476D01*
X629739Y44410D01*
X629811Y44341D01*
X629880Y44269D01*
X629946Y44195D01*
X630010Y44117D01*
X630070Y44038D01*
X630127Y43956D01*
X630181Y43872D01*
X630231Y43786D01*
X630278Y43698D01*
X630322Y43608D01*
X630362Y43517D01*
X630398Y43424D01*
X630431Y43330D01*
X630460Y43234D01*
X630485Y43138D01*
X630506Y43041D01*
X630524Y42942D01*
X630537Y42844D01*
X630547Y42744D01*
X630553Y42645D01*
X630555Y42545D01*
X630553Y42404D01*
X630548Y42263D01*
X630538Y42122D01*
X630525Y41981D01*
X630509Y41841D01*
X630488Y41701D01*
X630464Y41562D01*
X630436Y41423D01*
X630405Y41286D01*
X630370Y41149D01*
X630332Y41013D01*
X630290Y40878D01*
X630244Y40745D01*
X630195Y40612D01*
X630142Y40481D01*
X630086Y40352D01*
X630027Y40223D01*
X629964Y40097D01*
X629898Y39972D01*
X629829Y39849D01*
X629756Y39728D01*
X629680Y39609D01*
X629601Y39491D01*
X629520Y39376D01*
X629435Y39264D01*
X629347Y39153D01*
X629256Y39045D01*
X629163Y38939D01*
X629066Y38836D01*
X628967Y38735D01*
X621665Y39053D02*
X621565Y39055D01*
X621466Y39061D01*
X621366Y39071D01*
X621268Y39084D01*
X621169Y39102D01*
X621072Y39123D01*
X620976Y39148D01*
X620880Y39177D01*
X620786Y39210D01*
X620693Y39246D01*
X620602Y39286D01*
X620512Y39330D01*
X620424Y39377D01*
X620338Y39427D01*
X620254Y39481D01*
X620172Y39538D01*
X620093Y39598D01*
X620015Y39662D01*
X619941Y39728D01*
X619869Y39797D01*
X619800Y39869D01*
X619734Y39943D01*
X619670Y40021D01*
X619610Y40100D01*
X619553Y40182D01*
X619499Y40266D01*
X619449Y40352D01*
X619402Y40440D01*
X619358Y40530D01*
X619318Y40621D01*
X619282Y40714D01*
X619249Y40808D01*
X619220Y40904D01*
X619195Y41000D01*
X619174Y41097D01*
X619156Y41196D01*
X619143Y41294D01*
X619133Y41394D01*
X619127Y41493D01*
X619125Y41593D01*
X619127Y41726D01*
X619132Y41859D01*
X619142Y41992D01*
X619155Y42125D01*
X619172Y42257D01*
X619192Y42389D01*
X619216Y42520D01*
X619244Y42650D01*
X619275Y42780D01*
X619310Y42908D01*
X619349Y43036D01*
X619391Y43162D01*
X619437Y43287D01*
X619486Y43411D01*
X619538Y43534D01*
X619594Y43655D01*
X619654Y43774D01*
X619716Y43892D01*
X619782Y44007D01*
X619851Y44121D01*
X619924Y44233D01*
X619999Y44343D01*
X620078Y44451D01*
X623888Y40322D02*
X623836Y40238D01*
X623781Y40155D01*
X623722Y40075D01*
X623661Y39997D01*
X623597Y39922D01*
X623529Y39849D01*
X623459Y39778D01*
X623387Y39711D01*
X623312Y39646D01*
X623234Y39584D01*
X623154Y39525D01*
X623072Y39469D01*
X622988Y39417D01*
X622902Y39368D01*
X622814Y39322D01*
X622724Y39279D01*
X622633Y39240D01*
X622540Y39205D01*
X622446Y39173D01*
X622351Y39145D01*
X622255Y39120D01*
X622158Y39100D01*
X622060Y39082D01*
X621962Y39069D01*
X621863Y39060D01*
X621764Y39054D01*
X621665Y39052D01*
X625792Y43815D02*
X625844Y43899D01*
X625899Y43982D01*
X625958Y44062D01*
X626019Y44140D01*
X626083Y44215D01*
X626151Y44288D01*
X626221Y44359D01*
X626293Y44426D01*
X626368Y44491D01*
X626446Y44553D01*
X626526Y44612D01*
X626608Y44668D01*
X626692Y44720D01*
X626778Y44769D01*
X626866Y44815D01*
X626956Y44858D01*
X627047Y44897D01*
X627140Y44932D01*
X627234Y44964D01*
X627329Y44992D01*
X627425Y45017D01*
X627522Y45037D01*
X627620Y45055D01*
X627718Y45068D01*
X627817Y45077D01*
X627916Y45083D01*
X628015Y45085D01*
X625793Y43815D02*
X623888Y40323D01*
X619125Y49149D02*
X630555Y52959D01*
X619125Y56769D01*
X619125Y64707D02*
X619127Y64811D01*
X619133Y64916D01*
X619142Y65020D01*
X619155Y65123D01*
X619173Y65226D01*
X619193Y65328D01*
X619218Y65430D01*
X619246Y65530D01*
X619278Y65630D01*
X619314Y65728D01*
X619353Y65825D01*
X619395Y65920D01*
X619441Y66014D01*
X619491Y66106D01*
X619543Y66196D01*
X619599Y66284D01*
X619659Y66370D01*
X619721Y66454D01*
X619786Y66535D01*
X619854Y66614D01*
X619926Y66691D01*
X619999Y66764D01*
X620076Y66836D01*
X620155Y66904D01*
X620236Y66969D01*
X620320Y67031D01*
X620406Y67091D01*
X620494Y67147D01*
X620584Y67199D01*
X620676Y67249D01*
X620770Y67295D01*
X620865Y67337D01*
X620962Y67376D01*
X621060Y67412D01*
X621160Y67444D01*
X621260Y67472D01*
X621362Y67497D01*
X621464Y67517D01*
X621567Y67535D01*
X621670Y67548D01*
X621774Y67557D01*
X621879Y67563D01*
X621983Y67565D01*
X619125Y64707D02*
X619127Y64589D01*
X619133Y64470D01*
X619142Y64352D01*
X619155Y64235D01*
X619173Y64118D01*
X619193Y64001D01*
X619218Y63885D01*
X619246Y63770D01*
X619279Y63657D01*
X619314Y63544D01*
X619354Y63432D01*
X619396Y63322D01*
X619443Y63213D01*
X619493Y63105D01*
X619546Y63000D01*
X619603Y62896D01*
X619663Y62794D01*
X619726Y62694D01*
X619793Y62596D01*
X619862Y62500D01*
X619935Y62407D01*
X620011Y62316D01*
X620089Y62227D01*
X620171Y62141D01*
X620255Y62058D01*
X620341Y61977D01*
X620431Y61900D01*
X620522Y61825D01*
X620616Y61753D01*
X620713Y61684D01*
X620811Y61619D01*
X620912Y61556D01*
X621015Y61497D01*
X621119Y61441D01*
X621225Y61389D01*
X621333Y61340D01*
X621442Y61295D01*
X621553Y61253D01*
X621665Y61215D01*
X624205Y66612D02*
X624130Y66688D01*
X624051Y66763D01*
X623970Y66834D01*
X623886Y66903D01*
X623800Y66968D01*
X623712Y67030D01*
X623622Y67090D01*
X623530Y67146D01*
X623435Y67199D01*
X623339Y67248D01*
X623241Y67294D01*
X623142Y67337D01*
X623041Y67376D01*
X622939Y67411D01*
X622836Y67443D01*
X622732Y67471D01*
X622627Y67496D01*
X622520Y67517D01*
X622414Y67534D01*
X622307Y67547D01*
X622199Y67556D01*
X622091Y67562D01*
X621983Y67564D01*
X624205Y66612D02*
X630555Y61214D01*
X630555Y67564D01*
X620395Y11430D02*
X622935Y8255D01*
X620395Y11430D02*
X631825Y11430D01*
X631825Y8255D02*
X631825Y14605D01*
X621665Y160655D02*
X620395Y160655D01*
X620395Y167005D01*
X631825Y163830D01*
D10*
X787400Y0D02*
X812800Y0D01*
X812800Y22860D01*
X810260Y25400D01*
X812800Y27940D01*
X812800Y48260D01*
X810260Y50800D01*
X812800Y53340D01*
X812800Y73660D01*
X810260Y76200D01*
X812800Y78740D01*
X812800Y99060D01*
X810260Y101600D01*
X812800Y104140D01*
X812800Y177800D02*
X787400Y177800D01*
X787400Y104140D02*
X789940Y101600D01*
X787400Y99060D01*
X787400Y78740D01*
X789940Y76200D01*
X787400Y73660D01*
X787400Y53340D01*
X789940Y50800D01*
X787400Y48260D01*
X787400Y27940D01*
X789940Y25400D01*
X787400Y22860D01*
X787400Y0D01*
X812800Y104140D02*
X812800Y124460D01*
X810260Y127000D01*
X812800Y129540D01*
X812800Y149860D01*
X810260Y152400D01*
X812800Y154940D01*
X789940Y152400D02*
X787400Y154940D01*
X789940Y152400D02*
X787400Y149860D01*
X787400Y129540D01*
X789940Y127000D01*
X787400Y124460D01*
X787400Y104140D01*
X787400Y154940D02*
X787400Y177800D01*
X812800Y177800D02*
X812800Y154940D01*
D11*
X780415Y45085D02*
X780515Y45083D01*
X780614Y45077D01*
X780714Y45067D01*
X780812Y45054D01*
X780911Y45036D01*
X781008Y45015D01*
X781104Y44990D01*
X781200Y44961D01*
X781294Y44928D01*
X781387Y44892D01*
X781478Y44852D01*
X781568Y44808D01*
X781656Y44761D01*
X781742Y44711D01*
X781826Y44657D01*
X781908Y44600D01*
X781987Y44540D01*
X782065Y44476D01*
X782139Y44410D01*
X782211Y44341D01*
X782280Y44269D01*
X782346Y44195D01*
X782410Y44117D01*
X782470Y44038D01*
X782527Y43956D01*
X782581Y43872D01*
X782631Y43786D01*
X782678Y43698D01*
X782722Y43608D01*
X782762Y43517D01*
X782798Y43424D01*
X782831Y43330D01*
X782860Y43234D01*
X782885Y43138D01*
X782906Y43041D01*
X782924Y42942D01*
X782937Y42844D01*
X782947Y42744D01*
X782953Y42645D01*
X782955Y42545D01*
X782953Y42404D01*
X782948Y42263D01*
X782938Y42122D01*
X782925Y41981D01*
X782909Y41841D01*
X782888Y41701D01*
X782864Y41562D01*
X782836Y41423D01*
X782805Y41286D01*
X782770Y41149D01*
X782732Y41013D01*
X782690Y40878D01*
X782644Y40745D01*
X782595Y40612D01*
X782542Y40481D01*
X782486Y40352D01*
X782427Y40223D01*
X782364Y40097D01*
X782298Y39972D01*
X782229Y39849D01*
X782156Y39728D01*
X782080Y39609D01*
X782001Y39491D01*
X781920Y39376D01*
X781835Y39264D01*
X781747Y39153D01*
X781656Y39045D01*
X781563Y38939D01*
X781466Y38836D01*
X781367Y38735D01*
X774065Y39053D02*
X773965Y39055D01*
X773866Y39061D01*
X773766Y39071D01*
X773668Y39084D01*
X773569Y39102D01*
X773472Y39123D01*
X773376Y39148D01*
X773280Y39177D01*
X773186Y39210D01*
X773093Y39246D01*
X773002Y39286D01*
X772912Y39330D01*
X772824Y39377D01*
X772738Y39427D01*
X772654Y39481D01*
X772572Y39538D01*
X772493Y39598D01*
X772415Y39662D01*
X772341Y39728D01*
X772269Y39797D01*
X772200Y39869D01*
X772134Y39943D01*
X772070Y40021D01*
X772010Y40100D01*
X771953Y40182D01*
X771899Y40266D01*
X771849Y40352D01*
X771802Y40440D01*
X771758Y40530D01*
X771718Y40621D01*
X771682Y40714D01*
X771649Y40808D01*
X771620Y40904D01*
X771595Y41000D01*
X771574Y41097D01*
X771556Y41196D01*
X771543Y41294D01*
X771533Y41394D01*
X771527Y41493D01*
X771525Y41593D01*
X771527Y41726D01*
X771532Y41859D01*
X771542Y41992D01*
X771555Y42125D01*
X771572Y42257D01*
X771592Y42389D01*
X771616Y42520D01*
X771644Y42650D01*
X771675Y42780D01*
X771710Y42908D01*
X771749Y43036D01*
X771791Y43162D01*
X771837Y43287D01*
X771886Y43411D01*
X771938Y43534D01*
X771994Y43655D01*
X772054Y43774D01*
X772116Y43892D01*
X772182Y44007D01*
X772251Y44121D01*
X772324Y44233D01*
X772399Y44343D01*
X772478Y44451D01*
X776288Y40322D02*
X776236Y40238D01*
X776181Y40155D01*
X776122Y40075D01*
X776061Y39997D01*
X775997Y39922D01*
X775929Y39849D01*
X775859Y39778D01*
X775787Y39711D01*
X775712Y39646D01*
X775634Y39584D01*
X775554Y39525D01*
X775472Y39469D01*
X775388Y39417D01*
X775302Y39368D01*
X775214Y39322D01*
X775124Y39279D01*
X775033Y39240D01*
X774940Y39205D01*
X774846Y39173D01*
X774751Y39145D01*
X774655Y39120D01*
X774558Y39100D01*
X774460Y39082D01*
X774362Y39069D01*
X774263Y39060D01*
X774164Y39054D01*
X774065Y39052D01*
X778192Y43815D02*
X778244Y43899D01*
X778299Y43982D01*
X778358Y44062D01*
X778419Y44140D01*
X778483Y44215D01*
X778551Y44288D01*
X778621Y44359D01*
X778693Y44426D01*
X778768Y44491D01*
X778846Y44553D01*
X778926Y44612D01*
X779008Y44668D01*
X779092Y44720D01*
X779178Y44769D01*
X779266Y44815D01*
X779356Y44858D01*
X779447Y44897D01*
X779540Y44932D01*
X779634Y44964D01*
X779729Y44992D01*
X779825Y45017D01*
X779922Y45037D01*
X780020Y45055D01*
X780118Y45068D01*
X780217Y45077D01*
X780316Y45083D01*
X780415Y45085D01*
X778193Y43815D02*
X776288Y40323D01*
X771525Y49149D02*
X782955Y52959D01*
X771525Y56769D01*
X782955Y61214D02*
X782955Y64389D01*
X782953Y64500D01*
X782947Y64610D01*
X782938Y64721D01*
X782924Y64831D01*
X782907Y64940D01*
X782886Y65049D01*
X782861Y65157D01*
X782832Y65264D01*
X782800Y65370D01*
X782764Y65475D01*
X782724Y65578D01*
X782681Y65680D01*
X782634Y65781D01*
X782583Y65880D01*
X782530Y65977D01*
X782473Y66071D01*
X782412Y66164D01*
X782349Y66255D01*
X782282Y66344D01*
X782212Y66430D01*
X782139Y66513D01*
X782064Y66595D01*
X781986Y66673D01*
X781904Y66748D01*
X781821Y66821D01*
X781735Y66891D01*
X781646Y66958D01*
X781555Y67021D01*
X781462Y67082D01*
X781368Y67139D01*
X781271Y67192D01*
X781172Y67243D01*
X781071Y67290D01*
X780969Y67333D01*
X780866Y67373D01*
X780761Y67409D01*
X780655Y67441D01*
X780548Y67470D01*
X780440Y67495D01*
X780331Y67516D01*
X780222Y67533D01*
X780112Y67547D01*
X780001Y67556D01*
X779891Y67562D01*
X779780Y67564D01*
X779669Y67562D01*
X779559Y67556D01*
X779448Y67547D01*
X779338Y67533D01*
X779229Y67516D01*
X779120Y67495D01*
X779012Y67470D01*
X778905Y67441D01*
X778799Y67409D01*
X778694Y67373D01*
X778591Y67333D01*
X778489Y67290D01*
X778388Y67243D01*
X778289Y67192D01*
X778193Y67139D01*
X778098Y67082D01*
X778005Y67021D01*
X777914Y66958D01*
X777825Y66891D01*
X777739Y66821D01*
X777656Y66748D01*
X777574Y66673D01*
X777496Y66595D01*
X777421Y66513D01*
X777348Y66430D01*
X777278Y66344D01*
X777211Y66255D01*
X777148Y66164D01*
X777087Y66071D01*
X777030Y65976D01*
X776977Y65880D01*
X776926Y65781D01*
X776879Y65680D01*
X776836Y65578D01*
X776796Y65475D01*
X776760Y65370D01*
X776728Y65264D01*
X776699Y65157D01*
X776674Y65049D01*
X776653Y64940D01*
X776636Y64831D01*
X776622Y64721D01*
X776613Y64610D01*
X776607Y64500D01*
X776605Y64389D01*
X771525Y65024D02*
X771525Y61214D01*
X771525Y65024D02*
X771527Y65124D01*
X771533Y65223D01*
X771543Y65323D01*
X771556Y65421D01*
X771574Y65520D01*
X771595Y65617D01*
X771620Y65713D01*
X771649Y65809D01*
X771682Y65903D01*
X771718Y65996D01*
X771758Y66087D01*
X771802Y66177D01*
X771849Y66265D01*
X771899Y66351D01*
X771953Y66435D01*
X772010Y66517D01*
X772070Y66596D01*
X772134Y66674D01*
X772200Y66748D01*
X772269Y66820D01*
X772341Y66889D01*
X772415Y66955D01*
X772493Y67019D01*
X772572Y67079D01*
X772654Y67136D01*
X772738Y67190D01*
X772824Y67240D01*
X772912Y67287D01*
X773002Y67331D01*
X773093Y67371D01*
X773186Y67407D01*
X773280Y67440D01*
X773376Y67469D01*
X773472Y67494D01*
X773569Y67515D01*
X773668Y67533D01*
X773766Y67546D01*
X773866Y67556D01*
X773965Y67562D01*
X774065Y67564D01*
X774165Y67562D01*
X774264Y67556D01*
X774364Y67546D01*
X774462Y67533D01*
X774561Y67515D01*
X774658Y67494D01*
X774754Y67469D01*
X774850Y67440D01*
X774944Y67407D01*
X775037Y67371D01*
X775128Y67331D01*
X775218Y67287D01*
X775306Y67240D01*
X775392Y67190D01*
X775476Y67136D01*
X775558Y67079D01*
X775637Y67019D01*
X775715Y66955D01*
X775789Y66889D01*
X775861Y66820D01*
X775930Y66748D01*
X775996Y66674D01*
X776060Y66596D01*
X776120Y66517D01*
X776177Y66435D01*
X776231Y66351D01*
X776281Y66265D01*
X776328Y66177D01*
X776372Y66087D01*
X776412Y65996D01*
X776448Y65903D01*
X776481Y65809D01*
X776510Y65713D01*
X776535Y65617D01*
X776556Y65520D01*
X776574Y65421D01*
X776587Y65323D01*
X776597Y65223D01*
X776603Y65124D01*
X776605Y65024D01*
X776605Y62484D01*
X772795Y11430D02*
X775335Y8255D01*
X772795Y11430D02*
X784225Y11430D01*
X784225Y8255D02*
X784225Y14605D01*
X774065Y160655D02*
X772795Y160655D01*
X772795Y167005D01*
X784225Y163830D01*
D10*
X939800Y0D02*
X965200Y0D01*
X965200Y22860D01*
X962660Y25400D01*
X965200Y27940D01*
X965200Y48260D01*
X962660Y50800D01*
X965200Y53340D01*
X965200Y73660D01*
X962660Y76200D01*
X965200Y78740D01*
X965200Y99060D01*
X962660Y101600D01*
X965200Y104140D01*
X965200Y177800D02*
X939800Y177800D01*
X939800Y104140D02*
X942340Y101600D01*
X939800Y99060D01*
X939800Y78740D01*
X942340Y76200D01*
X939800Y73660D01*
X939800Y53340D01*
X942340Y50800D01*
X939800Y48260D01*
X939800Y27940D01*
X942340Y25400D01*
X939800Y22860D01*
X939800Y0D01*
X965200Y104140D02*
X965200Y124460D01*
X962660Y127000D01*
X965200Y129540D01*
X965200Y149860D01*
X962660Y152400D01*
X965200Y154940D01*
X942340Y152400D02*
X939800Y154940D01*
X942340Y152400D02*
X939800Y149860D01*
X939800Y129540D01*
X942340Y127000D01*
X939800Y124460D01*
X939800Y104140D01*
X939800Y154940D02*
X939800Y177800D01*
X965200Y177800D02*
X965200Y154940D01*
D11*
X932815Y45085D02*
X932915Y45083D01*
X933014Y45077D01*
X933114Y45067D01*
X933212Y45054D01*
X933311Y45036D01*
X933408Y45015D01*
X933504Y44990D01*
X933600Y44961D01*
X933694Y44928D01*
X933787Y44892D01*
X933878Y44852D01*
X933968Y44808D01*
X934056Y44761D01*
X934142Y44711D01*
X934226Y44657D01*
X934308Y44600D01*
X934387Y44540D01*
X934465Y44476D01*
X934539Y44410D01*
X934611Y44341D01*
X934680Y44269D01*
X934746Y44195D01*
X934810Y44117D01*
X934870Y44038D01*
X934927Y43956D01*
X934981Y43872D01*
X935031Y43786D01*
X935078Y43698D01*
X935122Y43608D01*
X935162Y43517D01*
X935198Y43424D01*
X935231Y43330D01*
X935260Y43234D01*
X935285Y43138D01*
X935306Y43041D01*
X935324Y42942D01*
X935337Y42844D01*
X935347Y42744D01*
X935353Y42645D01*
X935355Y42545D01*
X935353Y42404D01*
X935348Y42263D01*
X935338Y42122D01*
X935325Y41981D01*
X935309Y41841D01*
X935288Y41701D01*
X935264Y41562D01*
X935236Y41423D01*
X935205Y41286D01*
X935170Y41149D01*
X935132Y41013D01*
X935090Y40878D01*
X935044Y40745D01*
X934995Y40612D01*
X934942Y40481D01*
X934886Y40352D01*
X934827Y40223D01*
X934764Y40097D01*
X934698Y39972D01*
X934629Y39849D01*
X934556Y39728D01*
X934480Y39609D01*
X934401Y39491D01*
X934320Y39376D01*
X934235Y39264D01*
X934147Y39153D01*
X934056Y39045D01*
X933963Y38939D01*
X933866Y38836D01*
X933767Y38735D01*
X926465Y39053D02*
X926365Y39055D01*
X926266Y39061D01*
X926166Y39071D01*
X926068Y39084D01*
X925969Y39102D01*
X925872Y39123D01*
X925776Y39148D01*
X925680Y39177D01*
X925586Y39210D01*
X925493Y39246D01*
X925402Y39286D01*
X925312Y39330D01*
X925224Y39377D01*
X925138Y39427D01*
X925054Y39481D01*
X924972Y39538D01*
X924893Y39598D01*
X924815Y39662D01*
X924741Y39728D01*
X924669Y39797D01*
X924600Y39869D01*
X924534Y39943D01*
X924470Y40021D01*
X924410Y40100D01*
X924353Y40182D01*
X924299Y40266D01*
X924249Y40352D01*
X924202Y40440D01*
X924158Y40530D01*
X924118Y40621D01*
X924082Y40714D01*
X924049Y40808D01*
X924020Y40904D01*
X923995Y41000D01*
X923974Y41097D01*
X923956Y41196D01*
X923943Y41294D01*
X923933Y41394D01*
X923927Y41493D01*
X923925Y41593D01*
X923927Y41726D01*
X923932Y41859D01*
X923942Y41992D01*
X923955Y42125D01*
X923972Y42257D01*
X923992Y42389D01*
X924016Y42520D01*
X924044Y42650D01*
X924075Y42780D01*
X924110Y42908D01*
X924149Y43036D01*
X924191Y43162D01*
X924237Y43287D01*
X924286Y43411D01*
X924338Y43534D01*
X924394Y43655D01*
X924454Y43774D01*
X924516Y43892D01*
X924582Y44007D01*
X924651Y44121D01*
X924724Y44233D01*
X924799Y44343D01*
X924878Y44451D01*
X928688Y40322D02*
X928636Y40238D01*
X928581Y40155D01*
X928522Y40075D01*
X928461Y39997D01*
X928397Y39922D01*
X928329Y39849D01*
X928259Y39778D01*
X928187Y39711D01*
X928112Y39646D01*
X928034Y39584D01*
X927954Y39525D01*
X927872Y39469D01*
X927788Y39417D01*
X927702Y39368D01*
X927614Y39322D01*
X927524Y39279D01*
X927433Y39240D01*
X927340Y39205D01*
X927246Y39173D01*
X927151Y39145D01*
X927055Y39120D01*
X926958Y39100D01*
X926860Y39082D01*
X926762Y39069D01*
X926663Y39060D01*
X926564Y39054D01*
X926465Y39052D01*
X930592Y43815D02*
X930644Y43899D01*
X930699Y43982D01*
X930758Y44062D01*
X930819Y44140D01*
X930883Y44215D01*
X930951Y44288D01*
X931021Y44359D01*
X931093Y44426D01*
X931168Y44491D01*
X931246Y44553D01*
X931326Y44612D01*
X931408Y44668D01*
X931492Y44720D01*
X931578Y44769D01*
X931666Y44815D01*
X931756Y44858D01*
X931847Y44897D01*
X931940Y44932D01*
X932034Y44964D01*
X932129Y44992D01*
X932225Y45017D01*
X932322Y45037D01*
X932420Y45055D01*
X932518Y45068D01*
X932617Y45077D01*
X932716Y45083D01*
X932815Y45085D01*
X930593Y43815D02*
X928688Y40323D01*
X923925Y49149D02*
X935355Y52959D01*
X923925Y56769D01*
X923925Y63754D02*
X932815Y61214D01*
X932815Y67564D01*
X930275Y65659D02*
X935355Y65659D01*
X925195Y11430D02*
X927735Y8255D01*
X925195Y11430D02*
X936625Y11430D01*
X936625Y8255D02*
X936625Y14605D01*
X926465Y160655D02*
X925195Y160655D01*
X925195Y167005D01*
X936625Y163830D01*
D10*
X1092200Y0D02*
X1117600Y0D01*
X1117600Y22860D01*
X1115060Y25400D01*
X1117600Y27940D01*
X1117600Y48260D01*
X1115060Y50800D01*
X1117600Y53340D01*
X1117600Y73660D01*
X1115060Y76200D01*
X1117600Y78740D01*
X1117600Y99060D01*
X1115060Y101600D01*
X1117600Y104140D01*
X1117600Y177800D02*
X1092200Y177800D01*
X1092200Y104140D02*
X1094740Y101600D01*
X1092200Y99060D01*
X1092200Y78740D01*
X1094740Y76200D01*
X1092200Y73660D01*
X1092200Y53340D01*
X1094740Y50800D01*
X1092200Y48260D01*
X1092200Y27940D01*
X1094740Y25400D01*
X1092200Y22860D01*
X1092200Y0D01*
X1117600Y104140D02*
X1117600Y124460D01*
X1115060Y127000D01*
X1117600Y129540D01*
X1117600Y149860D01*
X1115060Y152400D01*
X1117600Y154940D01*
X1094740Y152400D02*
X1092200Y154940D01*
X1094740Y152400D02*
X1092200Y149860D01*
X1092200Y129540D01*
X1094740Y127000D01*
X1092200Y124460D01*
X1092200Y104140D01*
X1092200Y154940D02*
X1092200Y177800D01*
X1117600Y177800D02*
X1117600Y154940D01*
D11*
X1085215Y45085D02*
X1085315Y45083D01*
X1085414Y45077D01*
X1085514Y45067D01*
X1085612Y45054D01*
X1085711Y45036D01*
X1085808Y45015D01*
X1085904Y44990D01*
X1086000Y44961D01*
X1086094Y44928D01*
X1086187Y44892D01*
X1086278Y44852D01*
X1086368Y44808D01*
X1086456Y44761D01*
X1086542Y44711D01*
X1086626Y44657D01*
X1086708Y44600D01*
X1086787Y44540D01*
X1086865Y44476D01*
X1086939Y44410D01*
X1087011Y44341D01*
X1087080Y44269D01*
X1087146Y44195D01*
X1087210Y44117D01*
X1087270Y44038D01*
X1087327Y43956D01*
X1087381Y43872D01*
X1087431Y43786D01*
X1087478Y43698D01*
X1087522Y43608D01*
X1087562Y43517D01*
X1087598Y43424D01*
X1087631Y43330D01*
X1087660Y43234D01*
X1087685Y43138D01*
X1087706Y43041D01*
X1087724Y42942D01*
X1087737Y42844D01*
X1087747Y42744D01*
X1087753Y42645D01*
X1087755Y42545D01*
X1087753Y42404D01*
X1087748Y42263D01*
X1087738Y42122D01*
X1087725Y41981D01*
X1087709Y41841D01*
X1087688Y41701D01*
X1087664Y41562D01*
X1087636Y41423D01*
X1087605Y41286D01*
X1087570Y41149D01*
X1087532Y41013D01*
X1087490Y40878D01*
X1087444Y40745D01*
X1087395Y40612D01*
X1087342Y40481D01*
X1087286Y40352D01*
X1087227Y40223D01*
X1087164Y40097D01*
X1087098Y39972D01*
X1087029Y39849D01*
X1086956Y39728D01*
X1086880Y39609D01*
X1086801Y39491D01*
X1086720Y39376D01*
X1086635Y39264D01*
X1086547Y39153D01*
X1086456Y39045D01*
X1086363Y38939D01*
X1086266Y38836D01*
X1086167Y38735D01*
X1078865Y39053D02*
X1078765Y39055D01*
X1078666Y39061D01*
X1078566Y39071D01*
X1078468Y39084D01*
X1078369Y39102D01*
X1078272Y39123D01*
X1078176Y39148D01*
X1078080Y39177D01*
X1077986Y39210D01*
X1077893Y39246D01*
X1077802Y39286D01*
X1077712Y39330D01*
X1077624Y39377D01*
X1077538Y39427D01*
X1077454Y39481D01*
X1077372Y39538D01*
X1077293Y39598D01*
X1077215Y39662D01*
X1077141Y39728D01*
X1077069Y39797D01*
X1077000Y39869D01*
X1076934Y39943D01*
X1076870Y40021D01*
X1076810Y40100D01*
X1076753Y40182D01*
X1076699Y40266D01*
X1076649Y40352D01*
X1076602Y40440D01*
X1076558Y40530D01*
X1076518Y40621D01*
X1076482Y40714D01*
X1076449Y40808D01*
X1076420Y40904D01*
X1076395Y41000D01*
X1076374Y41097D01*
X1076356Y41196D01*
X1076343Y41294D01*
X1076333Y41394D01*
X1076327Y41493D01*
X1076325Y41593D01*
X1076327Y41726D01*
X1076332Y41859D01*
X1076342Y41992D01*
X1076355Y42125D01*
X1076372Y42257D01*
X1076392Y42389D01*
X1076416Y42520D01*
X1076444Y42650D01*
X1076475Y42780D01*
X1076510Y42908D01*
X1076549Y43036D01*
X1076591Y43162D01*
X1076637Y43287D01*
X1076686Y43411D01*
X1076738Y43534D01*
X1076794Y43655D01*
X1076854Y43774D01*
X1076916Y43892D01*
X1076982Y44007D01*
X1077051Y44121D01*
X1077124Y44233D01*
X1077199Y44343D01*
X1077278Y44451D01*
X1081088Y40322D02*
X1081036Y40238D01*
X1080981Y40155D01*
X1080922Y40075D01*
X1080861Y39997D01*
X1080797Y39922D01*
X1080729Y39849D01*
X1080659Y39778D01*
X1080587Y39711D01*
X1080512Y39646D01*
X1080434Y39584D01*
X1080354Y39525D01*
X1080272Y39469D01*
X1080188Y39417D01*
X1080102Y39368D01*
X1080014Y39322D01*
X1079924Y39279D01*
X1079833Y39240D01*
X1079740Y39205D01*
X1079646Y39173D01*
X1079551Y39145D01*
X1079455Y39120D01*
X1079358Y39100D01*
X1079260Y39082D01*
X1079162Y39069D01*
X1079063Y39060D01*
X1078964Y39054D01*
X1078865Y39052D01*
X1082992Y43815D02*
X1083044Y43899D01*
X1083099Y43982D01*
X1083158Y44062D01*
X1083219Y44140D01*
X1083283Y44215D01*
X1083351Y44288D01*
X1083421Y44359D01*
X1083493Y44426D01*
X1083568Y44491D01*
X1083646Y44553D01*
X1083726Y44612D01*
X1083808Y44668D01*
X1083892Y44720D01*
X1083978Y44769D01*
X1084066Y44815D01*
X1084156Y44858D01*
X1084247Y44897D01*
X1084340Y44932D01*
X1084434Y44964D01*
X1084529Y44992D01*
X1084625Y45017D01*
X1084722Y45037D01*
X1084820Y45055D01*
X1084918Y45068D01*
X1085017Y45077D01*
X1085116Y45083D01*
X1085215Y45085D01*
X1082993Y43815D02*
X1081088Y40323D01*
X1076325Y49149D02*
X1087755Y52959D01*
X1076325Y56769D01*
X1087755Y61214D02*
X1087755Y65024D01*
X1087753Y65124D01*
X1087747Y65223D01*
X1087737Y65323D01*
X1087724Y65421D01*
X1087706Y65520D01*
X1087685Y65617D01*
X1087660Y65713D01*
X1087631Y65809D01*
X1087598Y65903D01*
X1087562Y65996D01*
X1087522Y66087D01*
X1087478Y66177D01*
X1087431Y66265D01*
X1087381Y66351D01*
X1087327Y66435D01*
X1087270Y66517D01*
X1087210Y66596D01*
X1087146Y66674D01*
X1087080Y66748D01*
X1087011Y66820D01*
X1086939Y66889D01*
X1086865Y66955D01*
X1086787Y67019D01*
X1086708Y67079D01*
X1086626Y67136D01*
X1086542Y67190D01*
X1086456Y67240D01*
X1086368Y67287D01*
X1086278Y67331D01*
X1086187Y67371D01*
X1086094Y67407D01*
X1086000Y67440D01*
X1085904Y67469D01*
X1085808Y67494D01*
X1085711Y67515D01*
X1085612Y67533D01*
X1085514Y67546D01*
X1085414Y67556D01*
X1085315Y67562D01*
X1085215Y67564D01*
X1083945Y67564D01*
X1083845Y67562D01*
X1083746Y67556D01*
X1083646Y67546D01*
X1083548Y67533D01*
X1083449Y67515D01*
X1083352Y67494D01*
X1083256Y67469D01*
X1083160Y67440D01*
X1083066Y67407D01*
X1082973Y67371D01*
X1082882Y67331D01*
X1082792Y67287D01*
X1082704Y67240D01*
X1082618Y67190D01*
X1082534Y67136D01*
X1082452Y67079D01*
X1082373Y67019D01*
X1082295Y66955D01*
X1082221Y66889D01*
X1082149Y66820D01*
X1082080Y66748D01*
X1082014Y66674D01*
X1081950Y66596D01*
X1081890Y66517D01*
X1081833Y66435D01*
X1081779Y66351D01*
X1081729Y66265D01*
X1081682Y66177D01*
X1081638Y66087D01*
X1081598Y65996D01*
X1081562Y65903D01*
X1081529Y65809D01*
X1081500Y65713D01*
X1081475Y65617D01*
X1081454Y65520D01*
X1081436Y65421D01*
X1081423Y65323D01*
X1081413Y65223D01*
X1081407Y65124D01*
X1081405Y65024D01*
X1081405Y61214D01*
X1076325Y61214D01*
X1076325Y67564D01*
X1077595Y11430D02*
X1080135Y8255D01*
X1077595Y11430D02*
X1089025Y11430D01*
X1089025Y8255D02*
X1089025Y14605D01*
X1078865Y160655D02*
X1077595Y160655D01*
X1077595Y167005D01*
X1089025Y163830D01*
D10*
X1244600Y0D02*
X1270000Y0D01*
X1270000Y22860D01*
X1267460Y25400D01*
X1270000Y27940D01*
X1270000Y48260D01*
X1267460Y50800D01*
X1270000Y53340D01*
X1270000Y73660D01*
X1267460Y76200D01*
X1270000Y78740D01*
X1270000Y99060D01*
X1267460Y101600D01*
X1270000Y104140D01*
X1270000Y177800D02*
X1244600Y177800D01*
X1244600Y104140D02*
X1247140Y101600D01*
X1244600Y99060D01*
X1244600Y78740D01*
X1247140Y76200D01*
X1244600Y73660D01*
X1244600Y53340D01*
X1247140Y50800D01*
X1244600Y48260D01*
X1244600Y27940D01*
X1247140Y25400D01*
X1244600Y22860D01*
X1244600Y0D01*
X1270000Y104140D02*
X1270000Y124460D01*
X1267460Y127000D01*
X1270000Y129540D01*
X1270000Y149860D01*
X1267460Y152400D01*
X1270000Y154940D01*
X1247140Y152400D02*
X1244600Y154940D01*
X1247140Y152400D02*
X1244600Y149860D01*
X1244600Y129540D01*
X1247140Y127000D01*
X1244600Y124460D01*
X1244600Y104140D01*
X1244600Y154940D02*
X1244600Y177800D01*
X1270000Y177800D02*
X1270000Y154940D01*
D11*
X1237615Y45085D02*
X1237715Y45083D01*
X1237814Y45077D01*
X1237914Y45067D01*
X1238012Y45054D01*
X1238111Y45036D01*
X1238208Y45015D01*
X1238304Y44990D01*
X1238400Y44961D01*
X1238494Y44928D01*
X1238587Y44892D01*
X1238678Y44852D01*
X1238768Y44808D01*
X1238856Y44761D01*
X1238942Y44711D01*
X1239026Y44657D01*
X1239108Y44600D01*
X1239187Y44540D01*
X1239265Y44476D01*
X1239339Y44410D01*
X1239411Y44341D01*
X1239480Y44269D01*
X1239546Y44195D01*
X1239610Y44117D01*
X1239670Y44038D01*
X1239727Y43956D01*
X1239781Y43872D01*
X1239831Y43786D01*
X1239878Y43698D01*
X1239922Y43608D01*
X1239962Y43517D01*
X1239998Y43424D01*
X1240031Y43330D01*
X1240060Y43234D01*
X1240085Y43138D01*
X1240106Y43041D01*
X1240124Y42942D01*
X1240137Y42844D01*
X1240147Y42744D01*
X1240153Y42645D01*
X1240155Y42545D01*
X1240153Y42404D01*
X1240148Y42263D01*
X1240138Y42122D01*
X1240125Y41981D01*
X1240109Y41841D01*
X1240088Y41701D01*
X1240064Y41562D01*
X1240036Y41423D01*
X1240005Y41286D01*
X1239970Y41149D01*
X1239932Y41013D01*
X1239890Y40878D01*
X1239844Y40745D01*
X1239795Y40612D01*
X1239742Y40481D01*
X1239686Y40352D01*
X1239627Y40223D01*
X1239564Y40097D01*
X1239498Y39972D01*
X1239429Y39849D01*
X1239356Y39728D01*
X1239280Y39609D01*
X1239201Y39491D01*
X1239120Y39376D01*
X1239035Y39264D01*
X1238947Y39153D01*
X1238856Y39045D01*
X1238763Y38939D01*
X1238666Y38836D01*
X1238567Y38735D01*
X1231265Y39053D02*
X1231165Y39055D01*
X1231066Y39061D01*
X1230966Y39071D01*
X1230868Y39084D01*
X1230769Y39102D01*
X1230672Y39123D01*
X1230576Y39148D01*
X1230480Y39177D01*
X1230386Y39210D01*
X1230293Y39246D01*
X1230202Y39286D01*
X1230112Y39330D01*
X1230024Y39377D01*
X1229938Y39427D01*
X1229854Y39481D01*
X1229772Y39538D01*
X1229693Y39598D01*
X1229615Y39662D01*
X1229541Y39728D01*
X1229469Y39797D01*
X1229400Y39869D01*
X1229334Y39943D01*
X1229270Y40021D01*
X1229210Y40100D01*
X1229153Y40182D01*
X1229099Y40266D01*
X1229049Y40352D01*
X1229002Y40440D01*
X1228958Y40530D01*
X1228918Y40621D01*
X1228882Y40714D01*
X1228849Y40808D01*
X1228820Y40904D01*
X1228795Y41000D01*
X1228774Y41097D01*
X1228756Y41196D01*
X1228743Y41294D01*
X1228733Y41394D01*
X1228727Y41493D01*
X1228725Y41593D01*
X1228727Y41726D01*
X1228732Y41859D01*
X1228742Y41992D01*
X1228755Y42125D01*
X1228772Y42257D01*
X1228792Y42389D01*
X1228816Y42520D01*
X1228844Y42650D01*
X1228875Y42780D01*
X1228910Y42908D01*
X1228949Y43036D01*
X1228991Y43162D01*
X1229037Y43287D01*
X1229086Y43411D01*
X1229138Y43534D01*
X1229194Y43655D01*
X1229254Y43774D01*
X1229316Y43892D01*
X1229382Y44007D01*
X1229451Y44121D01*
X1229524Y44233D01*
X1229599Y44343D01*
X1229678Y44451D01*
X1233488Y40322D02*
X1233436Y40238D01*
X1233381Y40155D01*
X1233322Y40075D01*
X1233261Y39997D01*
X1233197Y39922D01*
X1233129Y39849D01*
X1233059Y39778D01*
X1232987Y39711D01*
X1232912Y39646D01*
X1232834Y39584D01*
X1232754Y39525D01*
X1232672Y39469D01*
X1232588Y39417D01*
X1232502Y39368D01*
X1232414Y39322D01*
X1232324Y39279D01*
X1232233Y39240D01*
X1232140Y39205D01*
X1232046Y39173D01*
X1231951Y39145D01*
X1231855Y39120D01*
X1231758Y39100D01*
X1231660Y39082D01*
X1231562Y39069D01*
X1231463Y39060D01*
X1231364Y39054D01*
X1231265Y39052D01*
X1235392Y43815D02*
X1235444Y43899D01*
X1235499Y43982D01*
X1235558Y44062D01*
X1235619Y44140D01*
X1235683Y44215D01*
X1235751Y44288D01*
X1235821Y44359D01*
X1235893Y44426D01*
X1235968Y44491D01*
X1236046Y44553D01*
X1236126Y44612D01*
X1236208Y44668D01*
X1236292Y44720D01*
X1236378Y44769D01*
X1236466Y44815D01*
X1236556Y44858D01*
X1236647Y44897D01*
X1236740Y44932D01*
X1236834Y44964D01*
X1236929Y44992D01*
X1237025Y45017D01*
X1237122Y45037D01*
X1237220Y45055D01*
X1237318Y45068D01*
X1237417Y45077D01*
X1237516Y45083D01*
X1237615Y45085D01*
X1235393Y43815D02*
X1233488Y40323D01*
X1228725Y49149D02*
X1240155Y52959D01*
X1228725Y56769D01*
X1233805Y61214D02*
X1233805Y65024D01*
X1233807Y65124D01*
X1233813Y65223D01*
X1233823Y65323D01*
X1233836Y65421D01*
X1233854Y65520D01*
X1233875Y65617D01*
X1233900Y65713D01*
X1233929Y65809D01*
X1233962Y65903D01*
X1233998Y65996D01*
X1234038Y66087D01*
X1234082Y66177D01*
X1234129Y66265D01*
X1234179Y66351D01*
X1234233Y66435D01*
X1234290Y66517D01*
X1234350Y66596D01*
X1234414Y66674D01*
X1234480Y66748D01*
X1234549Y66820D01*
X1234621Y66889D01*
X1234695Y66955D01*
X1234773Y67019D01*
X1234852Y67079D01*
X1234934Y67136D01*
X1235018Y67190D01*
X1235104Y67240D01*
X1235192Y67287D01*
X1235282Y67331D01*
X1235373Y67371D01*
X1235466Y67407D01*
X1235560Y67440D01*
X1235656Y67469D01*
X1235752Y67494D01*
X1235849Y67515D01*
X1235948Y67533D01*
X1236046Y67546D01*
X1236146Y67556D01*
X1236245Y67562D01*
X1236345Y67564D01*
X1236980Y67564D01*
X1237091Y67562D01*
X1237201Y67556D01*
X1237312Y67547D01*
X1237422Y67533D01*
X1237531Y67516D01*
X1237640Y67495D01*
X1237748Y67470D01*
X1237855Y67441D01*
X1237961Y67409D01*
X1238066Y67373D01*
X1238169Y67333D01*
X1238271Y67290D01*
X1238372Y67243D01*
X1238471Y67192D01*
X1238568Y67139D01*
X1238662Y67082D01*
X1238755Y67021D01*
X1238846Y66958D01*
X1238935Y66891D01*
X1239021Y66821D01*
X1239104Y66748D01*
X1239186Y66673D01*
X1239264Y66595D01*
X1239339Y66513D01*
X1239412Y66430D01*
X1239482Y66344D01*
X1239549Y66255D01*
X1239612Y66164D01*
X1239673Y66071D01*
X1239730Y65976D01*
X1239783Y65880D01*
X1239834Y65781D01*
X1239881Y65680D01*
X1239924Y65578D01*
X1239964Y65475D01*
X1240000Y65370D01*
X1240032Y65264D01*
X1240061Y65157D01*
X1240086Y65049D01*
X1240107Y64940D01*
X1240124Y64831D01*
X1240138Y64721D01*
X1240147Y64610D01*
X1240153Y64500D01*
X1240155Y64389D01*
X1240153Y64278D01*
X1240147Y64168D01*
X1240138Y64057D01*
X1240124Y63947D01*
X1240107Y63838D01*
X1240086Y63729D01*
X1240061Y63621D01*
X1240032Y63514D01*
X1240000Y63408D01*
X1239964Y63303D01*
X1239924Y63200D01*
X1239881Y63098D01*
X1239834Y62997D01*
X1239783Y62898D01*
X1239730Y62801D01*
X1239673Y62707D01*
X1239612Y62614D01*
X1239549Y62523D01*
X1239482Y62434D01*
X1239412Y62348D01*
X1239339Y62265D01*
X1239264Y62183D01*
X1239186Y62105D01*
X1239104Y62030D01*
X1239021Y61957D01*
X1238935Y61887D01*
X1238846Y61820D01*
X1238755Y61757D01*
X1238662Y61696D01*
X1238568Y61639D01*
X1238471Y61586D01*
X1238372Y61535D01*
X1238271Y61488D01*
X1238169Y61445D01*
X1238066Y61405D01*
X1237961Y61369D01*
X1237855Y61337D01*
X1237748Y61308D01*
X1237640Y61283D01*
X1237531Y61262D01*
X1237422Y61245D01*
X1237312Y61231D01*
X1237201Y61222D01*
X1237091Y61216D01*
X1236980Y61214D01*
X1233805Y61214D01*
X1233665Y61216D01*
X1233525Y61222D01*
X1233385Y61231D01*
X1233246Y61245D01*
X1233107Y61262D01*
X1232969Y61283D01*
X1232831Y61308D01*
X1232694Y61337D01*
X1232558Y61369D01*
X1232423Y61406D01*
X1232289Y61446D01*
X1232156Y61489D01*
X1232024Y61537D01*
X1231893Y61587D01*
X1231764Y61642D01*
X1231637Y61700D01*
X1231511Y61761D01*
X1231387Y61826D01*
X1231265Y61895D01*
X1231145Y61966D01*
X1231027Y62041D01*
X1230910Y62119D01*
X1230796Y62201D01*
X1230685Y62285D01*
X1230576Y62373D01*
X1230469Y62463D01*
X1230364Y62557D01*
X1230263Y62653D01*
X1230164Y62752D01*
X1230068Y62853D01*
X1229974Y62958D01*
X1229884Y63065D01*
X1229796Y63174D01*
X1229712Y63285D01*
X1229630Y63399D01*
X1229552Y63516D01*
X1229477Y63634D01*
X1229406Y63754D01*
X1229337Y63876D01*
X1229272Y64000D01*
X1229211Y64126D01*
X1229153Y64253D01*
X1229098Y64382D01*
X1229048Y64513D01*
X1229000Y64645D01*
X1228957Y64778D01*
X1228917Y64912D01*
X1228880Y65047D01*
X1228848Y65183D01*
X1228819Y65320D01*
X1228794Y65458D01*
X1228773Y65596D01*
X1228756Y65735D01*
X1228742Y65874D01*
X1228733Y66014D01*
X1228727Y66154D01*
X1228725Y66294D01*
X1229995Y11430D02*
X1232535Y8255D01*
X1229995Y11430D02*
X1241425Y11430D01*
X1241425Y8255D02*
X1241425Y14605D01*
X1231265Y160655D02*
X1229995Y160655D01*
X1229995Y167005D01*
X1241425Y163830D01*
D10*
X1397000Y0D02*
X1422400Y0D01*
X1422400Y22860D01*
X1419860Y25400D01*
X1422400Y27940D01*
X1422400Y48260D01*
X1419860Y50800D01*
X1422400Y53340D01*
X1422400Y73660D01*
X1419860Y76200D01*
X1422400Y78740D01*
X1422400Y99060D01*
X1419860Y101600D01*
X1422400Y104140D01*
X1422400Y177800D02*
X1397000Y177800D01*
X1397000Y104140D02*
X1399540Y101600D01*
X1397000Y99060D01*
X1397000Y78740D01*
X1399540Y76200D01*
X1397000Y73660D01*
X1397000Y53340D01*
X1399540Y50800D01*
X1397000Y48260D01*
X1397000Y27940D01*
X1399540Y25400D01*
X1397000Y22860D01*
X1397000Y0D01*
X1422400Y104140D02*
X1422400Y124460D01*
X1419860Y127000D01*
X1422400Y129540D01*
X1422400Y149860D01*
X1419860Y152400D01*
X1422400Y154940D01*
X1399540Y152400D02*
X1397000Y154940D01*
X1399540Y152400D02*
X1397000Y149860D01*
X1397000Y129540D01*
X1399540Y127000D01*
X1397000Y124460D01*
X1397000Y104140D01*
X1397000Y154940D02*
X1397000Y177800D01*
X1422400Y177800D02*
X1422400Y154940D01*
D11*
X1390015Y45085D02*
X1390115Y45083D01*
X1390214Y45077D01*
X1390314Y45067D01*
X1390412Y45054D01*
X1390511Y45036D01*
X1390608Y45015D01*
X1390704Y44990D01*
X1390800Y44961D01*
X1390894Y44928D01*
X1390987Y44892D01*
X1391078Y44852D01*
X1391168Y44808D01*
X1391256Y44761D01*
X1391342Y44711D01*
X1391426Y44657D01*
X1391508Y44600D01*
X1391587Y44540D01*
X1391665Y44476D01*
X1391739Y44410D01*
X1391811Y44341D01*
X1391880Y44269D01*
X1391946Y44195D01*
X1392010Y44117D01*
X1392070Y44038D01*
X1392127Y43956D01*
X1392181Y43872D01*
X1392231Y43786D01*
X1392278Y43698D01*
X1392322Y43608D01*
X1392362Y43517D01*
X1392398Y43424D01*
X1392431Y43330D01*
X1392460Y43234D01*
X1392485Y43138D01*
X1392506Y43041D01*
X1392524Y42942D01*
X1392537Y42844D01*
X1392547Y42744D01*
X1392553Y42645D01*
X1392555Y42545D01*
X1392553Y42404D01*
X1392548Y42263D01*
X1392538Y42122D01*
X1392525Y41981D01*
X1392509Y41841D01*
X1392488Y41701D01*
X1392464Y41562D01*
X1392436Y41423D01*
X1392405Y41286D01*
X1392370Y41149D01*
X1392332Y41013D01*
X1392290Y40878D01*
X1392244Y40745D01*
X1392195Y40612D01*
X1392142Y40481D01*
X1392086Y40352D01*
X1392027Y40223D01*
X1391964Y40097D01*
X1391898Y39972D01*
X1391829Y39849D01*
X1391756Y39728D01*
X1391680Y39609D01*
X1391601Y39491D01*
X1391520Y39376D01*
X1391435Y39264D01*
X1391347Y39153D01*
X1391256Y39045D01*
X1391163Y38939D01*
X1391066Y38836D01*
X1390967Y38735D01*
X1383665Y39053D02*
X1383565Y39055D01*
X1383466Y39061D01*
X1383366Y39071D01*
X1383268Y39084D01*
X1383169Y39102D01*
X1383072Y39123D01*
X1382976Y39148D01*
X1382880Y39177D01*
X1382786Y39210D01*
X1382693Y39246D01*
X1382602Y39286D01*
X1382512Y39330D01*
X1382424Y39377D01*
X1382338Y39427D01*
X1382254Y39481D01*
X1382172Y39538D01*
X1382093Y39598D01*
X1382015Y39662D01*
X1381941Y39728D01*
X1381869Y39797D01*
X1381800Y39869D01*
X1381734Y39943D01*
X1381670Y40021D01*
X1381610Y40100D01*
X1381553Y40182D01*
X1381499Y40266D01*
X1381449Y40352D01*
X1381402Y40440D01*
X1381358Y40530D01*
X1381318Y40621D01*
X1381282Y40714D01*
X1381249Y40808D01*
X1381220Y40904D01*
X1381195Y41000D01*
X1381174Y41097D01*
X1381156Y41196D01*
X1381143Y41294D01*
X1381133Y41394D01*
X1381127Y41493D01*
X1381125Y41593D01*
X1381127Y41726D01*
X1381132Y41859D01*
X1381142Y41992D01*
X1381155Y42125D01*
X1381172Y42257D01*
X1381192Y42389D01*
X1381216Y42520D01*
X1381244Y42650D01*
X1381275Y42780D01*
X1381310Y42908D01*
X1381349Y43036D01*
X1381391Y43162D01*
X1381437Y43287D01*
X1381486Y43411D01*
X1381538Y43534D01*
X1381594Y43655D01*
X1381654Y43774D01*
X1381716Y43892D01*
X1381782Y44007D01*
X1381851Y44121D01*
X1381924Y44233D01*
X1381999Y44343D01*
X1382078Y44451D01*
X1385888Y40322D02*
X1385836Y40238D01*
X1385781Y40155D01*
X1385722Y40075D01*
X1385661Y39997D01*
X1385597Y39922D01*
X1385529Y39849D01*
X1385459Y39778D01*
X1385387Y39711D01*
X1385312Y39646D01*
X1385234Y39584D01*
X1385154Y39525D01*
X1385072Y39469D01*
X1384988Y39417D01*
X1384902Y39368D01*
X1384814Y39322D01*
X1384724Y39279D01*
X1384633Y39240D01*
X1384540Y39205D01*
X1384446Y39173D01*
X1384351Y39145D01*
X1384255Y39120D01*
X1384158Y39100D01*
X1384060Y39082D01*
X1383962Y39069D01*
X1383863Y39060D01*
X1383764Y39054D01*
X1383665Y39052D01*
X1387792Y43815D02*
X1387844Y43899D01*
X1387899Y43982D01*
X1387958Y44062D01*
X1388019Y44140D01*
X1388083Y44215D01*
X1388151Y44288D01*
X1388221Y44359D01*
X1388293Y44426D01*
X1388368Y44491D01*
X1388446Y44553D01*
X1388526Y44612D01*
X1388608Y44668D01*
X1388692Y44720D01*
X1388778Y44769D01*
X1388866Y44815D01*
X1388956Y44858D01*
X1389047Y44897D01*
X1389140Y44932D01*
X1389234Y44964D01*
X1389329Y44992D01*
X1389425Y45017D01*
X1389522Y45037D01*
X1389620Y45055D01*
X1389718Y45068D01*
X1389817Y45077D01*
X1389916Y45083D01*
X1390015Y45085D01*
X1387793Y43815D02*
X1385888Y40323D01*
X1381125Y49149D02*
X1392555Y52959D01*
X1381125Y56769D01*
X1381125Y61214D02*
X1382395Y61214D01*
X1381125Y61214D02*
X1381125Y67564D01*
X1392555Y64389D01*
X1382395Y11430D02*
X1384935Y8255D01*
X1382395Y11430D02*
X1393825Y11430D01*
X1393825Y8255D02*
X1393825Y14605D01*
X1383665Y160655D02*
X1382395Y160655D01*
X1382395Y167005D01*
X1393825Y163830D01*
D10*
X1549400Y0D02*
X1574800Y0D01*
X1574800Y22860D01*
X1572260Y25400D01*
X1574800Y27940D01*
X1574800Y48260D01*
X1572260Y50800D01*
X1574800Y53340D01*
X1574800Y73660D01*
X1572260Y76200D01*
X1574800Y78740D01*
X1574800Y99060D01*
X1572260Y101600D01*
X1574800Y104140D01*
X1574800Y177800D02*
X1549400Y177800D01*
X1549400Y104140D02*
X1551940Y101600D01*
X1549400Y99060D01*
X1549400Y78740D01*
X1551940Y76200D01*
X1549400Y73660D01*
X1549400Y53340D01*
X1551940Y50800D01*
X1549400Y48260D01*
X1549400Y27940D01*
X1551940Y25400D01*
X1549400Y22860D01*
X1549400Y0D01*
X1574800Y104140D02*
X1574800Y124460D01*
X1572260Y127000D01*
X1574800Y129540D01*
X1574800Y149860D01*
X1572260Y152400D01*
X1574800Y154940D01*
X1551940Y152400D02*
X1549400Y154940D01*
X1551940Y152400D02*
X1549400Y149860D01*
X1549400Y129540D01*
X1551940Y127000D01*
X1549400Y124460D01*
X1549400Y104140D01*
X1549400Y154940D02*
X1549400Y177800D01*
X1574800Y177800D02*
X1574800Y154940D01*
D11*
X1542415Y45085D02*
X1542515Y45083D01*
X1542614Y45077D01*
X1542714Y45067D01*
X1542812Y45054D01*
X1542911Y45036D01*
X1543008Y45015D01*
X1543104Y44990D01*
X1543200Y44961D01*
X1543294Y44928D01*
X1543387Y44892D01*
X1543478Y44852D01*
X1543568Y44808D01*
X1543656Y44761D01*
X1543742Y44711D01*
X1543826Y44657D01*
X1543908Y44600D01*
X1543987Y44540D01*
X1544065Y44476D01*
X1544139Y44410D01*
X1544211Y44341D01*
X1544280Y44269D01*
X1544346Y44195D01*
X1544410Y44117D01*
X1544470Y44038D01*
X1544527Y43956D01*
X1544581Y43872D01*
X1544631Y43786D01*
X1544678Y43698D01*
X1544722Y43608D01*
X1544762Y43517D01*
X1544798Y43424D01*
X1544831Y43330D01*
X1544860Y43234D01*
X1544885Y43138D01*
X1544906Y43041D01*
X1544924Y42942D01*
X1544937Y42844D01*
X1544947Y42744D01*
X1544953Y42645D01*
X1544955Y42545D01*
X1544953Y42404D01*
X1544948Y42263D01*
X1544938Y42122D01*
X1544925Y41981D01*
X1544909Y41841D01*
X1544888Y41701D01*
X1544864Y41562D01*
X1544836Y41423D01*
X1544805Y41286D01*
X1544770Y41149D01*
X1544732Y41013D01*
X1544690Y40878D01*
X1544644Y40745D01*
X1544595Y40612D01*
X1544542Y40481D01*
X1544486Y40352D01*
X1544427Y40223D01*
X1544364Y40097D01*
X1544298Y39972D01*
X1544229Y39849D01*
X1544156Y39728D01*
X1544080Y39609D01*
X1544001Y39491D01*
X1543920Y39376D01*
X1543835Y39264D01*
X1543747Y39153D01*
X1543656Y39045D01*
X1543563Y38939D01*
X1543466Y38836D01*
X1543367Y38735D01*
X1536065Y39053D02*
X1535965Y39055D01*
X1535866Y39061D01*
X1535766Y39071D01*
X1535668Y39084D01*
X1535569Y39102D01*
X1535472Y39123D01*
X1535376Y39148D01*
X1535280Y39177D01*
X1535186Y39210D01*
X1535093Y39246D01*
X1535002Y39286D01*
X1534912Y39330D01*
X1534824Y39377D01*
X1534738Y39427D01*
X1534654Y39481D01*
X1534572Y39538D01*
X1534493Y39598D01*
X1534415Y39662D01*
X1534341Y39728D01*
X1534269Y39797D01*
X1534200Y39869D01*
X1534134Y39943D01*
X1534070Y40021D01*
X1534010Y40100D01*
X1533953Y40182D01*
X1533899Y40266D01*
X1533849Y40352D01*
X1533802Y40440D01*
X1533758Y40530D01*
X1533718Y40621D01*
X1533682Y40714D01*
X1533649Y40808D01*
X1533620Y40904D01*
X1533595Y41000D01*
X1533574Y41097D01*
X1533556Y41196D01*
X1533543Y41294D01*
X1533533Y41394D01*
X1533527Y41493D01*
X1533525Y41593D01*
X1533527Y41726D01*
X1533532Y41859D01*
X1533542Y41992D01*
X1533555Y42125D01*
X1533572Y42257D01*
X1533592Y42389D01*
X1533616Y42520D01*
X1533644Y42650D01*
X1533675Y42780D01*
X1533710Y42908D01*
X1533749Y43036D01*
X1533791Y43162D01*
X1533837Y43287D01*
X1533886Y43411D01*
X1533938Y43534D01*
X1533994Y43655D01*
X1534054Y43774D01*
X1534116Y43892D01*
X1534182Y44007D01*
X1534251Y44121D01*
X1534324Y44233D01*
X1534399Y44343D01*
X1534478Y44451D01*
X1538288Y40322D02*
X1538236Y40238D01*
X1538181Y40155D01*
X1538122Y40075D01*
X1538061Y39997D01*
X1537997Y39922D01*
X1537929Y39849D01*
X1537859Y39778D01*
X1537787Y39711D01*
X1537712Y39646D01*
X1537634Y39584D01*
X1537554Y39525D01*
X1537472Y39469D01*
X1537388Y39417D01*
X1537302Y39368D01*
X1537214Y39322D01*
X1537124Y39279D01*
X1537033Y39240D01*
X1536940Y39205D01*
X1536846Y39173D01*
X1536751Y39145D01*
X1536655Y39120D01*
X1536558Y39100D01*
X1536460Y39082D01*
X1536362Y39069D01*
X1536263Y39060D01*
X1536164Y39054D01*
X1536065Y39052D01*
X1540192Y43815D02*
X1540244Y43899D01*
X1540299Y43982D01*
X1540358Y44062D01*
X1540419Y44140D01*
X1540483Y44215D01*
X1540551Y44288D01*
X1540621Y44359D01*
X1540693Y44426D01*
X1540768Y44491D01*
X1540846Y44553D01*
X1540926Y44612D01*
X1541008Y44668D01*
X1541092Y44720D01*
X1541178Y44769D01*
X1541266Y44815D01*
X1541356Y44858D01*
X1541447Y44897D01*
X1541540Y44932D01*
X1541634Y44964D01*
X1541729Y44992D01*
X1541825Y45017D01*
X1541922Y45037D01*
X1542020Y45055D01*
X1542118Y45068D01*
X1542217Y45077D01*
X1542316Y45083D01*
X1542415Y45085D01*
X1540193Y43815D02*
X1538288Y40323D01*
X1533525Y49149D02*
X1544955Y52959D01*
X1533525Y56769D01*
X1541780Y61214D02*
X1541669Y61216D01*
X1541559Y61222D01*
X1541448Y61231D01*
X1541338Y61245D01*
X1541229Y61262D01*
X1541120Y61283D01*
X1541012Y61308D01*
X1540905Y61337D01*
X1540799Y61369D01*
X1540694Y61405D01*
X1540591Y61445D01*
X1540489Y61488D01*
X1540388Y61535D01*
X1540289Y61586D01*
X1540193Y61639D01*
X1540098Y61696D01*
X1540005Y61757D01*
X1539914Y61820D01*
X1539825Y61887D01*
X1539739Y61957D01*
X1539656Y62030D01*
X1539574Y62105D01*
X1539496Y62183D01*
X1539421Y62265D01*
X1539348Y62348D01*
X1539278Y62434D01*
X1539211Y62523D01*
X1539148Y62614D01*
X1539087Y62707D01*
X1539030Y62801D01*
X1538977Y62898D01*
X1538926Y62997D01*
X1538879Y63098D01*
X1538836Y63200D01*
X1538796Y63303D01*
X1538760Y63408D01*
X1538728Y63514D01*
X1538699Y63621D01*
X1538674Y63729D01*
X1538653Y63838D01*
X1538636Y63947D01*
X1538622Y64057D01*
X1538613Y64168D01*
X1538607Y64278D01*
X1538605Y64389D01*
X1538607Y64500D01*
X1538613Y64610D01*
X1538622Y64721D01*
X1538636Y64831D01*
X1538653Y64940D01*
X1538674Y65049D01*
X1538699Y65157D01*
X1538728Y65264D01*
X1538760Y65370D01*
X1538796Y65475D01*
X1538836Y65578D01*
X1538879Y65680D01*
X1538926Y65781D01*
X1538977Y65880D01*
X1539030Y65977D01*
X1539087Y66071D01*
X1539148Y66164D01*
X1539211Y66255D01*
X1539278Y66344D01*
X1539348Y66430D01*
X1539421Y66513D01*
X1539496Y66595D01*
X1539574Y66673D01*
X1539656Y66748D01*
X1539739Y66821D01*
X1539825Y66891D01*
X1539914Y66958D01*
X1540005Y67021D01*
X1540098Y67082D01*
X1540193Y67139D01*
X1540289Y67192D01*
X1540388Y67243D01*
X1540489Y67290D01*
X1540591Y67333D01*
X1540694Y67373D01*
X1540799Y67409D01*
X1540905Y67441D01*
X1541012Y67470D01*
X1541120Y67495D01*
X1541229Y67516D01*
X1541338Y67533D01*
X1541448Y67547D01*
X1541559Y67556D01*
X1541669Y67562D01*
X1541780Y67564D01*
X1541891Y67562D01*
X1542001Y67556D01*
X1542112Y67547D01*
X1542222Y67533D01*
X1542331Y67516D01*
X1542440Y67495D01*
X1542548Y67470D01*
X1542655Y67441D01*
X1542761Y67409D01*
X1542866Y67373D01*
X1542969Y67333D01*
X1543071Y67290D01*
X1543172Y67243D01*
X1543271Y67192D01*
X1543368Y67139D01*
X1543462Y67082D01*
X1543555Y67021D01*
X1543646Y66958D01*
X1543735Y66891D01*
X1543821Y66821D01*
X1543904Y66748D01*
X1543986Y66673D01*
X1544064Y66595D01*
X1544139Y66513D01*
X1544212Y66430D01*
X1544282Y66344D01*
X1544349Y66255D01*
X1544412Y66164D01*
X1544473Y66071D01*
X1544530Y65976D01*
X1544583Y65880D01*
X1544634Y65781D01*
X1544681Y65680D01*
X1544724Y65578D01*
X1544764Y65475D01*
X1544800Y65370D01*
X1544832Y65264D01*
X1544861Y65157D01*
X1544886Y65049D01*
X1544907Y64940D01*
X1544924Y64831D01*
X1544938Y64721D01*
X1544947Y64610D01*
X1544953Y64500D01*
X1544955Y64389D01*
X1544953Y64278D01*
X1544947Y64168D01*
X1544938Y64057D01*
X1544924Y63947D01*
X1544907Y63838D01*
X1544886Y63729D01*
X1544861Y63621D01*
X1544832Y63514D01*
X1544800Y63408D01*
X1544764Y63303D01*
X1544724Y63200D01*
X1544681Y63098D01*
X1544634Y62997D01*
X1544583Y62898D01*
X1544530Y62801D01*
X1544473Y62707D01*
X1544412Y62614D01*
X1544349Y62523D01*
X1544282Y62434D01*
X1544212Y62348D01*
X1544139Y62265D01*
X1544064Y62183D01*
X1543986Y62105D01*
X1543904Y62030D01*
X1543821Y61957D01*
X1543735Y61887D01*
X1543646Y61820D01*
X1543555Y61757D01*
X1543462Y61696D01*
X1543368Y61639D01*
X1543271Y61586D01*
X1543172Y61535D01*
X1543071Y61488D01*
X1542969Y61445D01*
X1542866Y61405D01*
X1542761Y61369D01*
X1542655Y61337D01*
X1542548Y61308D01*
X1542440Y61283D01*
X1542331Y61262D01*
X1542222Y61245D01*
X1542112Y61231D01*
X1542001Y61222D01*
X1541891Y61216D01*
X1541780Y61214D01*
X1536065Y61849D02*
X1535965Y61851D01*
X1535866Y61857D01*
X1535766Y61867D01*
X1535668Y61880D01*
X1535569Y61898D01*
X1535472Y61919D01*
X1535376Y61944D01*
X1535280Y61973D01*
X1535186Y62006D01*
X1535093Y62042D01*
X1535002Y62082D01*
X1534912Y62126D01*
X1534824Y62173D01*
X1534738Y62223D01*
X1534654Y62277D01*
X1534572Y62334D01*
X1534493Y62394D01*
X1534415Y62458D01*
X1534341Y62524D01*
X1534269Y62593D01*
X1534200Y62665D01*
X1534134Y62739D01*
X1534070Y62817D01*
X1534010Y62896D01*
X1533953Y62978D01*
X1533899Y63062D01*
X1533849Y63148D01*
X1533802Y63236D01*
X1533758Y63326D01*
X1533718Y63417D01*
X1533682Y63510D01*
X1533649Y63604D01*
X1533620Y63700D01*
X1533595Y63796D01*
X1533574Y63893D01*
X1533556Y63992D01*
X1533543Y64090D01*
X1533533Y64190D01*
X1533527Y64289D01*
X1533525Y64389D01*
X1533527Y64489D01*
X1533533Y64588D01*
X1533543Y64688D01*
X1533556Y64786D01*
X1533574Y64885D01*
X1533595Y64982D01*
X1533620Y65078D01*
X1533649Y65174D01*
X1533682Y65268D01*
X1533718Y65361D01*
X1533758Y65452D01*
X1533802Y65542D01*
X1533849Y65630D01*
X1533899Y65716D01*
X1533953Y65800D01*
X1534010Y65882D01*
X1534070Y65961D01*
X1534134Y66039D01*
X1534200Y66113D01*
X1534269Y66185D01*
X1534341Y66254D01*
X1534415Y66320D01*
X1534493Y66384D01*
X1534572Y66444D01*
X1534654Y66501D01*
X1534738Y66555D01*
X1534824Y66605D01*
X1534912Y66652D01*
X1535002Y66696D01*
X1535093Y66736D01*
X1535186Y66772D01*
X1535280Y66805D01*
X1535376Y66834D01*
X1535472Y66859D01*
X1535569Y66880D01*
X1535668Y66898D01*
X1535766Y66911D01*
X1535866Y66921D01*
X1535965Y66927D01*
X1536065Y66929D01*
X1536165Y66927D01*
X1536264Y66921D01*
X1536364Y66911D01*
X1536462Y66898D01*
X1536561Y66880D01*
X1536658Y66859D01*
X1536754Y66834D01*
X1536850Y66805D01*
X1536944Y66772D01*
X1537037Y66736D01*
X1537128Y66696D01*
X1537218Y66652D01*
X1537306Y66605D01*
X1537392Y66555D01*
X1537476Y66501D01*
X1537558Y66444D01*
X1537637Y66384D01*
X1537715Y66320D01*
X1537789Y66254D01*
X1537861Y66185D01*
X1537930Y66113D01*
X1537996Y66039D01*
X1538060Y65961D01*
X1538120Y65882D01*
X1538177Y65800D01*
X1538231Y65716D01*
X1538281Y65630D01*
X1538328Y65542D01*
X1538372Y65452D01*
X1538412Y65361D01*
X1538448Y65268D01*
X1538481Y65174D01*
X1538510Y65078D01*
X1538535Y64982D01*
X1538556Y64885D01*
X1538574Y64786D01*
X1538587Y64688D01*
X1538597Y64588D01*
X1538603Y64489D01*
X1538605Y64389D01*
X1538603Y64289D01*
X1538597Y64190D01*
X1538587Y64090D01*
X1538574Y63992D01*
X1538556Y63893D01*
X1538535Y63796D01*
X1538510Y63700D01*
X1538481Y63604D01*
X1538448Y63510D01*
X1538412Y63417D01*
X1538372Y63326D01*
X1538328Y63236D01*
X1538281Y63148D01*
X1538231Y63062D01*
X1538177Y62978D01*
X1538120Y62896D01*
X1538060Y62817D01*
X1537996Y62739D01*
X1537930Y62665D01*
X1537861Y62593D01*
X1537789Y62524D01*
X1537715Y62458D01*
X1537637Y62394D01*
X1537558Y62334D01*
X1537476Y62277D01*
X1537392Y62223D01*
X1537306Y62173D01*
X1537218Y62126D01*
X1537128Y62082D01*
X1537037Y62042D01*
X1536944Y62006D01*
X1536850Y61973D01*
X1536754Y61944D01*
X1536658Y61919D01*
X1536561Y61898D01*
X1536462Y61880D01*
X1536364Y61867D01*
X1536264Y61857D01*
X1536165Y61851D01*
X1536065Y61849D01*
X1534795Y11430D02*
X1537335Y8255D01*
X1534795Y11430D02*
X1546225Y11430D01*
X1546225Y8255D02*
X1546225Y14605D01*
X1536065Y160655D02*
X1534795Y160655D01*
X1534795Y167005D01*
X1546225Y163830D01*
D10*
X1443990Y342900D02*
X1443990Y546100D01*
X1502410Y546100D02*
X1502410Y342900D01*
X1502410Y546100D02*
X1443990Y546100D01*
X1443990Y342900D02*
X1463040Y342900D01*
X1483360Y342900D02*
X1502410Y342900D01*
X1483360Y342900D02*
X1483357Y343147D01*
X1483348Y343395D01*
X1483333Y343642D01*
X1483312Y343888D01*
X1483285Y344134D01*
X1483252Y344379D01*
X1483213Y344624D01*
X1483168Y344867D01*
X1483117Y345109D01*
X1483060Y345350D01*
X1482998Y345589D01*
X1482929Y345827D01*
X1482855Y346063D01*
X1482775Y346297D01*
X1482690Y346529D01*
X1482598Y346759D01*
X1482502Y346987D01*
X1482399Y347212D01*
X1482292Y347435D01*
X1482178Y347655D01*
X1482060Y347872D01*
X1481936Y348087D01*
X1481807Y348298D01*
X1481673Y348506D01*
X1481534Y348711D01*
X1481390Y348912D01*
X1481242Y349110D01*
X1481088Y349304D01*
X1480930Y349494D01*
X1480767Y349680D01*
X1480600Y349862D01*
X1480428Y350040D01*
X1480252Y350214D01*
X1480072Y350384D01*
X1479887Y350549D01*
X1479699Y350709D01*
X1479507Y350865D01*
X1479311Y351017D01*
X1479112Y351163D01*
X1478909Y351305D01*
X1478702Y351441D01*
X1478493Y351573D01*
X1478280Y351699D01*
X1478064Y351820D01*
X1477846Y351936D01*
X1477624Y352046D01*
X1477400Y352151D01*
X1477174Y352251D01*
X1476945Y352345D01*
X1476714Y352433D01*
X1476480Y352516D01*
X1476245Y352593D01*
X1476008Y352664D01*
X1475770Y352730D01*
X1475530Y352789D01*
X1475288Y352843D01*
X1475045Y352891D01*
X1474802Y352933D01*
X1474557Y352969D01*
X1474311Y352999D01*
X1474065Y353023D01*
X1473818Y353041D01*
X1473571Y353053D01*
X1473324Y353059D01*
X1473076Y353059D01*
X1472829Y353053D01*
X1472582Y353041D01*
X1472335Y353023D01*
X1472089Y352999D01*
X1471843Y352969D01*
X1471598Y352933D01*
X1471355Y352891D01*
X1471112Y352843D01*
X1470870Y352789D01*
X1470630Y352730D01*
X1470392Y352664D01*
X1470155Y352593D01*
X1469920Y352516D01*
X1469686Y352433D01*
X1469455Y352345D01*
X1469226Y352251D01*
X1469000Y352151D01*
X1468776Y352046D01*
X1468554Y351936D01*
X1468336Y351820D01*
X1468120Y351699D01*
X1467907Y351573D01*
X1467698Y351441D01*
X1467491Y351305D01*
X1467288Y351163D01*
X1467089Y351017D01*
X1466893Y350865D01*
X1466701Y350709D01*
X1466513Y350549D01*
X1466328Y350384D01*
X1466148Y350214D01*
X1465972Y350040D01*
X1465800Y349862D01*
X1465633Y349680D01*
X1465470Y349494D01*
X1465312Y349304D01*
X1465158Y349110D01*
X1465010Y348912D01*
X1464866Y348711D01*
X1464727Y348506D01*
X1464593Y348298D01*
X1464464Y348087D01*
X1464340Y347872D01*
X1464222Y347655D01*
X1464108Y347435D01*
X1464001Y347212D01*
X1463898Y346987D01*
X1463802Y346759D01*
X1463710Y346529D01*
X1463625Y346297D01*
X1463545Y346063D01*
X1463471Y345827D01*
X1463402Y345589D01*
X1463340Y345350D01*
X1463283Y345109D01*
X1463232Y344867D01*
X1463187Y344624D01*
X1463148Y344379D01*
X1463115Y344134D01*
X1463088Y343888D01*
X1463067Y343642D01*
X1463052Y343395D01*
X1463043Y343147D01*
X1463040Y342900D01*
D11*
X1449959Y338455D02*
X1449959Y327025D01*
X1446784Y338455D02*
X1453134Y338455D01*
X1464437Y338455D02*
X1456817Y327025D01*
X1464437Y327025D02*
X1456817Y338455D01*
X1469390Y338455D02*
X1469390Y327025D01*
X1473200Y332105D02*
X1469390Y338455D01*
X1473200Y332105D02*
X1477010Y338455D01*
X1477010Y327025D01*
X1482979Y330200D02*
X1482979Y338455D01*
X1482979Y330200D02*
X1482981Y330089D01*
X1482987Y329979D01*
X1482996Y329868D01*
X1483010Y329758D01*
X1483027Y329649D01*
X1483048Y329540D01*
X1483073Y329432D01*
X1483102Y329325D01*
X1483134Y329219D01*
X1483170Y329114D01*
X1483210Y329011D01*
X1483253Y328909D01*
X1483300Y328808D01*
X1483351Y328709D01*
X1483404Y328613D01*
X1483461Y328518D01*
X1483522Y328425D01*
X1483585Y328334D01*
X1483652Y328245D01*
X1483722Y328159D01*
X1483795Y328076D01*
X1483870Y327994D01*
X1483948Y327916D01*
X1484030Y327841D01*
X1484113Y327768D01*
X1484199Y327698D01*
X1484288Y327631D01*
X1484379Y327568D01*
X1484472Y327507D01*
X1484567Y327450D01*
X1484663Y327397D01*
X1484762Y327346D01*
X1484863Y327299D01*
X1484965Y327256D01*
X1485068Y327216D01*
X1485173Y327180D01*
X1485279Y327148D01*
X1485386Y327119D01*
X1485494Y327094D01*
X1485603Y327073D01*
X1485712Y327056D01*
X1485822Y327042D01*
X1485933Y327033D01*
X1486043Y327027D01*
X1486154Y327025D01*
X1486265Y327027D01*
X1486375Y327033D01*
X1486486Y327042D01*
X1486596Y327056D01*
X1486705Y327073D01*
X1486814Y327094D01*
X1486922Y327119D01*
X1487029Y327148D01*
X1487135Y327180D01*
X1487240Y327216D01*
X1487343Y327256D01*
X1487445Y327299D01*
X1487546Y327346D01*
X1487645Y327397D01*
X1487742Y327450D01*
X1487836Y327507D01*
X1487929Y327568D01*
X1488020Y327631D01*
X1488109Y327698D01*
X1488195Y327768D01*
X1488278Y327841D01*
X1488360Y327916D01*
X1488438Y327994D01*
X1488513Y328076D01*
X1488586Y328159D01*
X1488656Y328245D01*
X1488723Y328334D01*
X1488786Y328425D01*
X1488847Y328518D01*
X1488904Y328612D01*
X1488957Y328709D01*
X1489008Y328808D01*
X1489055Y328909D01*
X1489098Y329011D01*
X1489138Y329114D01*
X1489174Y329219D01*
X1489206Y329325D01*
X1489235Y329432D01*
X1489260Y329540D01*
X1489281Y329649D01*
X1489298Y329758D01*
X1489312Y329868D01*
X1489321Y329979D01*
X1489327Y330089D01*
X1489329Y330200D01*
X1489329Y338455D01*
X1494155Y327025D02*
X1501775Y338455D01*
X1494155Y338455D02*
X1501775Y327025D01*
D12*
X546100Y488950D02*
X495300Y488950D01*
X546100Y488950D02*
X546100Y469900D01*
X546100Y425450D01*
X495300Y425450D01*
X495300Y469900D01*
X495300Y488950D01*
X495300Y469900D02*
X546100Y469900D01*
D13*
X501904Y504952D02*
X495808Y495808D01*
X501904Y495808D02*
X495808Y504952D01*
X505460Y502920D02*
X508000Y504952D01*
X508000Y495808D01*
X505460Y495808D02*
X510540Y495808D01*
M02*
